M48
;Layer_Color=9474304
;FILE_FORMAT=4:4
METRIC
;TYPE=PLATED
T1F00S00C0.5000
T2F00S00C0.6000
T3F00S00C0.7000
T4F00S00C0.7112
T5F00S00C0.7620
T6F00S00C0.9000
T7F00S00C1.4000
T8F00S00C3.2000
%
T01
X00657860Y00081280
X00682860
X00735000Y00220000
X00737500Y00270000
X00915000Y00250000
Y00217500
T02
X00142500Y00285000
X00445000Y00230000
X00419100Y00200660
X00392499Y00132500
X00407500Y00115000
X00432500
X00407500Y00077500
X00510000Y00262500
X00552500
X00707800Y00107879
X00640000Y00372500
X00827500Y00482500
X00850000Y00487500
T03
X00465000Y00365000
X00490000
Y00435000
X00465000
T04
X00128500Y00154000
X00507500Y00107500
X00558800Y00093980
X00585000Y00250000
X00630000Y00240000
X00567500Y00332500
X00525000
X00655000Y00337500
X00642500Y00257500
X00655000Y00240000
X00672500Y00247500
X00812498Y00165000
X00770000Y00052500
X00900000Y00467500
X00520000Y00445000
X00272500Y00460000
X00182500Y00414999
X00125000Y00387500
T05
X00304800Y00025400
X00330200
X00355600
X00381000
X00406400
X00431800
X00457200
X00508000
X00533400
X00558800
X00584200
X00609600
X00635000
X00660400
X00685800
X00736600
X00762000
X00787400
X00812800
X00838200
X00863600
X00889000
X00914400
X00939800Y00076200
Y00101600
Y00127000
Y00152400
Y00177800
Y00203200
Y00228600
Y00254000
Y00279400
Y00304800
Y00330200
X00965200
Y00304800
Y00279400
Y00254000
Y00228600
Y00203200
Y00177800
Y00152400
Y00127000
Y00101600
Y00076200
Y00355600
Y00381000
Y00406400
Y00431800
Y00457200
Y00482600
Y00508000
X00939800
Y00482600
Y00457200
Y00431800
Y00406400
Y00381000
Y00355600
X00863600Y00508000
X00838200
X00812800
X00787400
X00762000
X00736600
X00711200
X00685800
X00635000
X00609600
X00584200
X00558800
X00533400
X00508000
X00482600
X00457200
X00416560
X00391160
X00365760
X00340360
X00314960
X00289560
X00264160
X00238760
T06
X00039200Y00054600
Y00080000
Y00104600
Y00130000
X00064600
X00090000
Y00104600
Y00080000
X00064600
Y00104600
Y00054600
X00090000
X00178500Y00066000
Y00091400
Y00116800
Y00167600
Y00193000
Y00218400
X00254700
Y00193000
Y00167600
Y00116800
Y00091400
Y00066000
X00330900
Y00091400
Y00116800
Y00167600
Y00193000
Y00218400
X00457200Y00182880
Y00157480
X00565000Y00297500
X00590400
X00245000Y00318800
X00660400Y00304800
Y00279400
X00787400
Y00254000
Y00228600
Y00203200
Y00177800
X00838200Y00177800
Y00203200
Y00228600
Y00254000
Y00279400
Y00304800
X00787400Y00304800
X00889000Y00254000
Y00228600
Y00203200
Y00177800
Y00152400
Y00127000
Y00101600
Y00076200
X00838200Y00076200
Y00101600
Y00127000
Y00152400
X00787400Y00127000
Y00101600
Y00076200
X00812800Y00355600
X00838200
X00863600
X00889000
X00888700Y00407500
X00888700Y00432500
X00863300
X00863300Y00407500
X00837900
X00837900Y00432500
X00812500
X00812500Y00407500
X00762000Y00406400
X00736600
X00711200
X00685800
X00660400Y00457200
X00711200Y00355600
X00736600
X00762000
X00635000Y00406400
X00609600
X00584200
Y00457200
X00609600
X00635000
X00245000Y00395000
Y00369600
Y00344200
X00200000Y00360000
X00165000
Y00445000
X00200000
X00187960Y00508000
X00213360
T07
X00066040Y00248920
Y00299720
T08
X00965200Y00025400
X00901700Y00508000
X00152400
M30
