G04 Layer_Physical_Order=2*
G04 Layer_Color=16711680*
%FSLAX44Y44*%
%MOMM*%
G71*
G01*
G75*
%ADD23C,0.5000*%
%ADD24C,0.2500*%
%ADD25C,1.0000*%
%ADD26C,0.2540*%
%ADD28C,1.5240*%
%ADD29R,1.5240X1.5240*%
%ADD30C,1.6000*%
%ADD31R,1.5000X1.5000*%
%ADD32C,1.5000*%
%ADD33R,1.5000X1.5000*%
%ADD34C,1.2000*%
%ADD35C,2.0000*%
%ADD36O,3.0000X2.5000*%
%ADD37C,1.0000*%
%ADD38C,1.2700*%
%ADD39C,0.8000*%
G36*
X519630Y39630D02*
X522500Y38441D01*
X543319D01*
X550340Y31420D01*
X547846Y25400D01*
X551054Y17655D01*
X553699Y16559D01*
X538501D01*
X541146Y17655D01*
X544354Y25400D01*
X541146Y33145D01*
X533400Y36354D01*
X525654Y33145D01*
X522446Y25400D01*
X525654Y17655D01*
X528299Y16559D01*
X518120D01*
Y35520D01*
X497880D01*
Y16559D01*
X467320D01*
Y35520D01*
X447080D01*
Y16559D01*
X437005D01*
X439576Y17624D01*
X442271Y24130D01*
X431800D01*
X421329D01*
X424024Y17624D01*
X426595Y16559D01*
X411605D01*
X414176Y17624D01*
X416871Y24130D01*
X406400D01*
X395929D01*
X398624Y17624D01*
X401195Y16559D01*
X386101D01*
X388745Y17655D01*
X391954Y25400D01*
X390987Y27733D01*
X396327Y33073D01*
X396327Y33073D01*
X396791Y34194D01*
X397912Y36900D01*
X397912Y36900D01*
Y126624D01*
X398239Y126760D01*
X400617Y132500D01*
X398239Y138240D01*
X392500Y140617D01*
Y140941D01*
X418319D01*
X519630Y39630D01*
D02*
G37*
G36*
X986812Y506431D02*
Y406400D01*
X986812Y406400D01*
X987921Y403721D01*
X996212Y395431D01*
Y23669D01*
X987921Y15379D01*
X986812Y12700D01*
X986812Y12700D01*
Y2500D01*
X310000D01*
Y16600D01*
X312546Y17655D01*
X315754Y25400D01*
X312546Y33145D01*
X310000Y34200D01*
Y45000D01*
X387088D01*
Y39141D01*
X383334Y35387D01*
X381000Y36354D01*
X373255Y33145D01*
X370046Y25400D01*
X373255Y17655D01*
X375899Y16559D01*
X360701D01*
X363345Y17655D01*
X366554Y25400D01*
X363345Y33145D01*
X355600Y36354D01*
X347854Y33145D01*
X344646Y25400D01*
X345923Y22317D01*
X339970Y28270D01*
X339964Y28273D01*
X337946Y33145D01*
X330200Y36354D01*
X322454Y33145D01*
X319246Y25400D01*
X322454Y17655D01*
X330200Y14446D01*
X337946Y17655D01*
X338285Y18475D01*
X347130Y9630D01*
X350000Y8441D01*
X692500D01*
X695370Y9630D01*
X707870Y22130D01*
X708218Y22970D01*
X709059Y25000D01*
Y39220D01*
X707870Y42090D01*
X674619Y75341D01*
Y80954D01*
X673430Y83825D01*
X664910Y92344D01*
X664680Y92900D01*
X589059Y168521D01*
Y242102D01*
X591773Y243227D01*
X594579Y250000D01*
X591773Y256773D01*
X585000Y259579D01*
X578227Y256773D01*
X575421Y250000D01*
X578227Y243227D01*
X580941Y242102D01*
Y166840D01*
X582130Y163970D01*
X657041Y89059D01*
X652120Y87020D01*
X649742Y81280D01*
X652120Y75540D01*
X657860Y73162D01*
X663600Y75540D01*
X665543Y80231D01*
X666501Y79273D01*
Y73660D01*
X667690Y70790D01*
X700941Y37539D01*
Y26681D01*
X694699Y20439D01*
X696754Y25400D01*
X693546Y33145D01*
X685800Y36354D01*
X678055Y33145D01*
X674846Y25400D01*
X678055Y17655D01*
X680699Y16559D01*
X665501D01*
X668146Y17655D01*
X671354Y25400D01*
X668146Y33145D01*
X660400Y36354D01*
X652654Y33145D01*
X649446Y25400D01*
X652654Y17655D01*
X655299Y16559D01*
X640101D01*
X642746Y17655D01*
X645954Y25400D01*
X642746Y33145D01*
X635000Y36354D01*
X627254Y33145D01*
X624046Y25400D01*
X627254Y17655D01*
X629899Y16559D01*
X614701D01*
X617346Y17655D01*
X620554Y25400D01*
X617346Y33145D01*
X609600Y36354D01*
X605914Y34827D01*
X585370Y55370D01*
X582500Y56559D01*
X536681D01*
X435370Y157870D01*
X432500Y159059D01*
X392500D01*
Y243840D01*
X82864D01*
X83622Y247650D01*
X66040D01*
X48458D01*
X49216Y243840D01*
X3788D01*
Y528712D01*
X964531D01*
X986812Y506431D01*
D02*
G37*
G36*
X381000Y159059D02*
X370581D01*
X340235Y189405D01*
X341724Y193000D01*
X338554Y200654D01*
X330900Y203824D01*
X323247Y200654D01*
X320076Y193000D01*
X323247Y185346D01*
X330900Y182176D01*
X334495Y183665D01*
X364101Y154059D01*
X299381D01*
X264035Y189405D01*
X265524Y193000D01*
X262354Y200654D01*
X254700Y203824D01*
X247047Y200654D01*
X243876Y193000D01*
X247047Y185346D01*
X250641Y183857D01*
Y183510D01*
X251830Y180640D01*
X254700Y179451D01*
X257570Y180640D01*
X258669Y183291D01*
X292901Y149059D01*
X228181D01*
X187835Y189405D01*
X189324Y193000D01*
X186154Y200654D01*
X178500Y203824D01*
X170847Y200654D01*
X167676Y193000D01*
X170847Y185346D01*
X178500Y182176D01*
X182095Y183665D01*
X222879Y142881D01*
X223190Y142130D01*
X226060Y140941D01*
X381000D01*
Y47706D01*
X310000D01*
X308087Y46913D01*
X307294Y45000D01*
Y40640D01*
X5080D01*
Y162560D01*
X83654Y241134D01*
X381000D01*
Y159059D01*
D02*
G37*
%LPC*%
G36*
X341241Y166330D02*
X332170D01*
Y157259D01*
X338585Y159916D01*
X341241Y166330D01*
D02*
G37*
G36*
X939800Y163354D02*
X932055Y160145D01*
X928846Y152400D01*
X932055Y144655D01*
X939800Y141446D01*
X947545Y144655D01*
X950754Y152400D01*
X947545Y160145D01*
X939800Y163354D01*
D02*
G37*
G36*
X137596Y152730D02*
X129770D01*
Y144904D01*
X135304Y147196D01*
X137596Y152730D01*
D02*
G37*
G36*
X127230D02*
X119404D01*
X121696Y147196D01*
X127230Y144904D01*
Y152730D01*
D02*
G37*
G36*
X788670Y137341D02*
Y128270D01*
X797741D01*
X795085Y134684D01*
X788670Y137341D01*
D02*
G37*
G36*
X786130D02*
X779716Y134684D01*
X777059Y128270D01*
X786130D01*
Y137341D01*
D02*
G37*
G36*
X40470Y140341D02*
Y131270D01*
X49541D01*
X46884Y137684D01*
X40470Y140341D01*
D02*
G37*
G36*
X37930Y140341D02*
X31516Y137684D01*
X28859Y131270D01*
X37930D01*
Y140341D01*
D02*
G37*
G36*
X455930Y156210D02*
X447160D01*
Y147440D01*
X455930D01*
Y156210D01*
D02*
G37*
G36*
X253430Y166330D02*
X244359D01*
X247016Y159916D01*
X253430Y157259D01*
Y166330D01*
D02*
G37*
G36*
X177230D02*
X168159D01*
X170816Y159916D01*
X177230Y157259D01*
Y166330D01*
D02*
G37*
G36*
X188841D02*
X179770D01*
Y157259D01*
X186185Y159916D01*
X188841Y166330D01*
D02*
G37*
G36*
X329630D02*
X320559D01*
X323216Y159916D01*
X329630Y157259D01*
Y166330D01*
D02*
G37*
G36*
X265041D02*
X255970D01*
Y157259D01*
X262384Y159916D01*
X265041Y166330D01*
D02*
G37*
G36*
X467240Y156210D02*
X458470D01*
Y147440D01*
X467240D01*
Y156210D01*
D02*
G37*
G36*
X129770Y163096D02*
Y155270D01*
X137596D01*
X135304Y160804D01*
X129770Y163096D01*
D02*
G37*
G36*
X127230D02*
X121696Y160804D01*
X119404Y155270D01*
X127230D01*
Y163096D01*
D02*
G37*
G36*
X508770Y116596D02*
Y108770D01*
X516596D01*
X514304Y114304D01*
X508770Y116596D01*
D02*
G37*
G36*
X506230D02*
X500696Y114304D01*
X498404Y108770D01*
X506230D01*
Y116596D01*
D02*
G37*
G36*
X709070Y115514D02*
Y109149D01*
X715435D01*
X713571Y113650D01*
X709070Y115514D01*
D02*
G37*
G36*
X706530D02*
X702029Y113650D01*
X700165Y109149D01*
X706530D01*
Y115514D01*
D02*
G37*
G36*
X440135Y113730D02*
X433770D01*
Y107365D01*
X438271Y109229D01*
X440135Y113730D01*
D02*
G37*
G36*
X264700Y126800D02*
X244700D01*
Y106800D01*
X264700D01*
Y126800D01*
D02*
G37*
G36*
X188500D02*
X168500D01*
Y106800D01*
X188500D01*
Y126800D01*
D02*
G37*
G36*
X431230Y113730D02*
X424865D01*
X426729Y109229D01*
X431230Y107365D01*
Y113730D01*
D02*
G37*
G36*
X340900Y126800D02*
X320900D01*
Y106800D01*
X340900D01*
Y126800D01*
D02*
G37*
G36*
X49541Y128730D02*
X40470D01*
Y119659D01*
X46884Y122316D01*
X49541Y128730D01*
D02*
G37*
G36*
X64600Y140824D02*
X56946Y137654D01*
X53776Y130000D01*
X56946Y122346D01*
X64600Y119176D01*
X72254Y122346D01*
X75424Y130000D01*
X72254Y137654D01*
X64600Y140824D01*
D02*
G37*
G36*
X100000Y140000D02*
X80000D01*
Y120000D01*
X100000D01*
Y140000D01*
D02*
G37*
G36*
X37930Y128730D02*
X28859D01*
X31516Y122316D01*
X37930Y119659D01*
Y128730D01*
D02*
G37*
G36*
X797741Y125730D02*
X788670D01*
Y116659D01*
X795085Y119316D01*
X797741Y125730D01*
D02*
G37*
G36*
X431230Y122635D02*
X426729Y120771D01*
X424865Y116270D01*
X431230D01*
Y122635D01*
D02*
G37*
G36*
X838200Y137824D02*
X830547Y134654D01*
X827376Y127000D01*
X830547Y119346D01*
X838200Y116176D01*
X845854Y119346D01*
X849024Y127000D01*
X845854Y134654D01*
X838200Y137824D01*
D02*
G37*
G36*
X786130Y125730D02*
X777059D01*
X779716Y119316D01*
X786130Y116659D01*
Y125730D01*
D02*
G37*
G36*
X433770Y122635D02*
Y116270D01*
X440135D01*
X438271Y120771D01*
X433770Y122635D01*
D02*
G37*
G36*
X64770Y264255D02*
X63540D01*
X57672Y263087D01*
X52697Y259763D01*
X49373Y254788D01*
X48458Y250190D01*
X64770D01*
Y264255D01*
D02*
G37*
G36*
X921553Y248730D02*
X916270D01*
Y243447D01*
X920005Y244995D01*
X921553Y248730D01*
D02*
G37*
G36*
X913730Y256553D02*
X909995Y255005D01*
X908447Y251270D01*
X913730D01*
Y256553D01*
D02*
G37*
G36*
X68540Y264255D02*
X67310D01*
Y250190D01*
X83622D01*
X82707Y254788D01*
X79383Y259763D01*
X74408Y263087D01*
X68540Y264255D01*
D02*
G37*
G36*
X939800Y264954D02*
X932055Y261745D01*
X928846Y254000D01*
X932055Y246255D01*
X939800Y243046D01*
X947545Y246255D01*
X950754Y254000D01*
X947545Y261745D01*
X939800Y264954D01*
D02*
G37*
G36*
X736270Y226553D02*
Y221270D01*
X741553D01*
X740005Y225005D01*
X736270Y226553D01*
D02*
G37*
G36*
X913730Y248730D02*
X908447D01*
X909995Y244995D01*
X913730Y243447D01*
Y248730D01*
D02*
G37*
G36*
X787400Y264824D02*
X779746Y261654D01*
X776576Y254000D01*
X779746Y246346D01*
X787400Y243176D01*
X795054Y246346D01*
X798224Y254000D01*
X795054Y261654D01*
X787400Y264824D01*
D02*
G37*
G36*
X916270Y256553D02*
Y251270D01*
X921553D01*
X920005Y255005D01*
X916270Y256553D01*
D02*
G37*
G36*
X744053Y268730D02*
X738770D01*
Y263447D01*
X742505Y264995D01*
X744053Y268730D01*
D02*
G37*
G36*
X736230D02*
X730947D01*
X732495Y264995D01*
X736230Y263447D01*
Y268730D01*
D02*
G37*
G36*
X511270Y270135D02*
Y263770D01*
X517635D01*
X515771Y268271D01*
X511270Y270135D01*
D02*
G37*
G36*
X508730D02*
X504229Y268271D01*
X502365Y263770D01*
X508730D01*
Y270135D01*
D02*
G37*
G36*
X517635Y261230D02*
X511270D01*
Y254865D01*
X515771Y256729D01*
X517635Y261230D01*
D02*
G37*
G36*
X508730D02*
X502365D01*
X504229Y256729D01*
X508730Y254865D01*
Y261230D01*
D02*
G37*
G36*
X560135D02*
X553770D01*
Y254865D01*
X558271Y256729D01*
X560135Y261230D01*
D02*
G37*
G36*
X551230D02*
X544865D01*
X546729Y256729D01*
X551230Y254865D01*
Y261230D01*
D02*
G37*
G36*
X733730Y226553D02*
X729995Y225005D01*
X728447Y221270D01*
X733730D01*
Y226553D01*
D02*
G37*
G36*
X329630Y177941D02*
X323216Y175284D01*
X320559Y168870D01*
X329630D01*
Y177941D01*
D02*
G37*
G36*
X253430D02*
X247016Y175284D01*
X244359Y168870D01*
X253430D01*
Y177941D01*
D02*
G37*
G36*
X255970Y177941D02*
Y168870D01*
X265041D01*
X262384Y175284D01*
X255970Y177941D01*
D02*
G37*
G36*
X179770D02*
Y168870D01*
X188841D01*
X186185Y175284D01*
X179770Y177941D01*
D02*
G37*
G36*
X467240Y167520D02*
X458470D01*
Y158750D01*
X467240D01*
Y167520D01*
D02*
G37*
G36*
X455930D02*
X447160D01*
Y158750D01*
X455930D01*
Y167520D01*
D02*
G37*
G36*
X177230Y177941D02*
X170816Y175284D01*
X168159Y168870D01*
X177230D01*
Y177941D01*
D02*
G37*
G36*
X939800Y188754D02*
X932055Y185546D01*
X928846Y177800D01*
X932055Y170054D01*
X939800Y166846D01*
X947545Y170054D01*
X950754Y177800D01*
X947545Y185546D01*
X939800Y188754D01*
D02*
G37*
G36*
X332170Y177941D02*
Y168870D01*
X341241D01*
X338585Y175284D01*
X332170Y177941D01*
D02*
G37*
G36*
X188500Y228400D02*
X168500D01*
Y208400D01*
X188500D01*
Y228400D01*
D02*
G37*
G36*
X420370Y208295D02*
Y201930D01*
X426735D01*
X424871Y206431D01*
X420370Y208295D01*
D02*
G37*
G36*
X340900Y228400D02*
X320900D01*
Y208400D01*
X340900D01*
Y228400D01*
D02*
G37*
G36*
X264700D02*
X244700D01*
Y208400D01*
X264700D01*
Y228400D01*
D02*
G37*
G36*
X417830Y199390D02*
X411465D01*
X413329Y194889D01*
X417830Y193025D01*
Y199390D01*
D02*
G37*
G36*
X457200Y193704D02*
X449546Y190534D01*
X446376Y182880D01*
X449546Y175226D01*
X457200Y172056D01*
X464854Y175226D01*
X468024Y182880D01*
X464854Y190534D01*
X457200Y193704D01*
D02*
G37*
G36*
X417830Y208295D02*
X413329Y206431D01*
X411465Y201930D01*
X417830D01*
Y208295D01*
D02*
G37*
G36*
X426735Y199390D02*
X420370D01*
Y193025D01*
X424871Y194889D01*
X426735Y199390D01*
D02*
G37*
G36*
X37930Y64941D02*
X31516Y62284D01*
X28859Y55870D01*
X37930D01*
Y64941D01*
D02*
G37*
G36*
X341241Y64730D02*
X332170D01*
Y55659D01*
X338585Y58316D01*
X341241Y64730D01*
D02*
G37*
G36*
X938530Y74930D02*
X929329D01*
X932024Y68424D01*
X938530Y65729D01*
Y74930D01*
D02*
G37*
G36*
X40470Y64941D02*
Y55870D01*
X49541D01*
X46884Y62284D01*
X40470Y64941D01*
D02*
G37*
G36*
X329630Y64730D02*
X320559D01*
X323216Y58316D01*
X329630Y55659D01*
Y64730D01*
D02*
G37*
G36*
X177230D02*
X168159D01*
X170816Y58316D01*
X177230Y55659D01*
Y64730D01*
D02*
G37*
G36*
X265041D02*
X255970D01*
Y55659D01*
X262384Y58316D01*
X265041Y64730D01*
D02*
G37*
G36*
X188841D02*
X179770D01*
Y55659D01*
X186185Y58316D01*
X188841Y64730D01*
D02*
G37*
G36*
X950271Y74930D02*
X941070D01*
Y65729D01*
X947576Y68424D01*
X950271Y74930D01*
D02*
G37*
G36*
X899000Y86200D02*
X879000D01*
Y66200D01*
X899000D01*
Y86200D01*
D02*
G37*
G36*
X797400Y86200D02*
X777400D01*
Y66200D01*
X797400D01*
Y86200D01*
D02*
G37*
G36*
X253430Y76341D02*
X247016Y73684D01*
X244359Y67270D01*
X253430D01*
Y76341D01*
D02*
G37*
G36*
X177230D02*
X170816Y73684D01*
X168159Y67270D01*
X177230D01*
Y76341D01*
D02*
G37*
G36*
X975671Y74930D02*
X966470D01*
Y65729D01*
X972976Y68424D01*
X975671Y74930D01*
D02*
G37*
G36*
X963930D02*
X954729D01*
X957424Y68424D01*
X963930Y65729D01*
Y74930D01*
D02*
G37*
G36*
X848240Y74930D02*
X839470D01*
Y66160D01*
X848240D01*
Y74930D01*
D02*
G37*
G36*
X836930D02*
X828160D01*
Y66160D01*
X836930D01*
Y74930D01*
D02*
G37*
G36*
X253430Y64730D02*
X244359D01*
X247016Y58316D01*
X253430Y55659D01*
Y64730D01*
D02*
G37*
G36*
X863600Y36354D02*
X855854Y33145D01*
X852646Y25400D01*
X855854Y17655D01*
X863600Y14446D01*
X871346Y17655D01*
X874554Y25400D01*
X871346Y33145D01*
X863600Y36354D01*
D02*
G37*
G36*
X838200D02*
X830454Y33145D01*
X827246Y25400D01*
X830454Y17655D01*
X838200Y14446D01*
X845946Y17655D01*
X849154Y25400D01*
X845946Y33145D01*
X838200Y36354D01*
D02*
G37*
G36*
X914400D02*
X906655Y33145D01*
X903446Y25400D01*
X906655Y17655D01*
X914400Y14446D01*
X922145Y17655D01*
X925354Y25400D01*
X922145Y33145D01*
X914400Y36354D01*
D02*
G37*
G36*
X889000D02*
X881255Y33145D01*
X878046Y25400D01*
X881255Y17655D01*
X889000Y14446D01*
X896746Y17655D01*
X899954Y25400D01*
X896746Y33145D01*
X889000Y36354D01*
D02*
G37*
G36*
X762000D02*
X754255Y33145D01*
X751046Y25400D01*
X754255Y17655D01*
X762000Y14446D01*
X769745Y17655D01*
X772954Y25400D01*
X769745Y33145D01*
X762000Y36354D01*
D02*
G37*
G36*
X965200Y44262D02*
X957982Y42827D01*
X951862Y38738D01*
X947773Y32618D01*
X946338Y25400D01*
X947773Y18182D01*
X951862Y12062D01*
X957982Y7973D01*
X965200Y6538D01*
X972418Y7973D01*
X978538Y12062D01*
X982627Y18182D01*
X984062Y25400D01*
X982627Y32618D01*
X978538Y38738D01*
X972418Y42827D01*
X965200Y44262D01*
D02*
G37*
G36*
X812800Y36354D02*
X805054Y33145D01*
X801846Y25400D01*
X805054Y17655D01*
X812800Y14446D01*
X820546Y17655D01*
X823754Y25400D01*
X820546Y33145D01*
X812800Y36354D01*
D02*
G37*
G36*
X787400D02*
X779654Y33145D01*
X776446Y25400D01*
X779654Y17655D01*
X787400Y14446D01*
X795145Y17655D01*
X798354Y25400D01*
X795145Y33145D01*
X787400Y36354D01*
D02*
G37*
G36*
X746720Y35520D02*
X726480D01*
Y15280D01*
X746720D01*
Y35520D01*
D02*
G37*
G36*
X90000Y65424D02*
X82346Y62254D01*
X79176Y54600D01*
X82346Y46946D01*
X90000Y43776D01*
X97654Y46946D01*
X100824Y54600D01*
X97654Y62254D01*
X90000Y65424D01*
D02*
G37*
G36*
X64600D02*
X56946Y62254D01*
X53776Y54600D01*
X56946Y46946D01*
X64600Y43776D01*
X72254Y46946D01*
X75424Y54600D01*
X72254Y62254D01*
X64600Y65424D01*
D02*
G37*
G36*
X37930Y53330D02*
X28859D01*
X31516Y46916D01*
X37930Y44259D01*
Y53330D01*
D02*
G37*
G36*
X49541D02*
X40470D01*
Y44259D01*
X46884Y46916D01*
X49541Y53330D01*
D02*
G37*
G36*
X430530Y35871D02*
X424024Y33176D01*
X421329Y26670D01*
X430530D01*
Y35871D01*
D02*
G37*
G36*
X405130D02*
X398624Y33176D01*
X395929Y26670D01*
X405130D01*
Y35871D01*
D02*
G37*
G36*
X433070Y35871D02*
Y26670D01*
X442271D01*
X439576Y33176D01*
X433070Y35871D01*
D02*
G37*
G36*
X407670D02*
Y26670D01*
X416871D01*
X414176Y33176D01*
X407670Y35871D01*
D02*
G37*
G36*
X329630Y76341D02*
X323216Y73684D01*
X320559Y67270D01*
X329630D01*
Y76341D01*
D02*
G37*
G36*
X838200Y112424D02*
X830547Y109254D01*
X827376Y101600D01*
X830547Y93946D01*
X838200Y90776D01*
X845854Y93946D01*
X849024Y101600D01*
X845854Y109254D01*
X838200Y112424D01*
D02*
G37*
G36*
X787400D02*
X779747Y109254D01*
X776576Y101600D01*
X779747Y93946D01*
X787400Y90776D01*
X795054Y93946D01*
X798224Y101600D01*
X795054Y109254D01*
X787400Y112424D01*
D02*
G37*
G36*
X90000Y115424D02*
X82346Y112254D01*
X79176Y104600D01*
X82346Y96946D01*
X90000Y93776D01*
X97654Y96946D01*
X100824Y104600D01*
X97654Y112254D01*
X90000Y115424D01*
D02*
G37*
G36*
X64600D02*
X56946Y112254D01*
X53776Y104600D01*
X56946Y96946D01*
X64600Y93776D01*
X72254Y96946D01*
X75424Y104600D01*
X72254Y112254D01*
X64600Y115424D01*
D02*
G37*
G36*
X40470Y90341D02*
Y81270D01*
X49541D01*
X46884Y87684D01*
X40470Y90341D01*
D02*
G37*
G36*
X37930Y90341D02*
X31516Y87684D01*
X28859Y81270D01*
X37930D01*
Y90341D01*
D02*
G37*
G36*
X567896Y92710D02*
X560070D01*
Y84884D01*
X565604Y87176D01*
X567896Y92710D01*
D02*
G37*
G36*
X557530D02*
X549704D01*
X551996Y87176D01*
X557530Y84884D01*
Y92710D01*
D02*
G37*
G36*
X49541Y103330D02*
X40470D01*
Y94259D01*
X46884Y96916D01*
X49541Y103330D01*
D02*
G37*
G36*
X715435Y106609D02*
X709070D01*
Y100244D01*
X713571Y102108D01*
X715435Y106609D01*
D02*
G37*
G36*
X516596Y106230D02*
X508770D01*
Y98404D01*
X514304Y100696D01*
X516596Y106230D01*
D02*
G37*
G36*
X40470Y114941D02*
Y105870D01*
X49541D01*
X46884Y112284D01*
X40470Y114941D01*
D02*
G37*
G36*
X37930Y114941D02*
X31516Y112284D01*
X28859Y105870D01*
X37930D01*
Y114941D01*
D02*
G37*
G36*
X557530Y103076D02*
X551996Y100784D01*
X549704Y95250D01*
X557530D01*
Y103076D01*
D02*
G37*
G36*
X37930Y103330D02*
X28859D01*
X31516Y96916D01*
X37930Y94259D01*
Y103330D01*
D02*
G37*
G36*
X506230Y106230D02*
X498404D01*
X500696Y100696D01*
X506230Y98404D01*
Y106230D01*
D02*
G37*
G36*
X560070Y103076D02*
Y95250D01*
X567896D01*
X565604Y100784D01*
X560070Y103076D01*
D02*
G37*
G36*
X330900Y102224D02*
X323247Y99054D01*
X320076Y91400D01*
X323247Y83746D01*
X330900Y80576D01*
X338554Y83746D01*
X341724Y91400D01*
X338554Y99054D01*
X330900Y102224D01*
D02*
G37*
G36*
X49541Y78730D02*
X40470D01*
Y69659D01*
X46884Y72316D01*
X49541Y78730D01*
D02*
G37*
G36*
X407500Y123118D02*
X401760Y120740D01*
X399382Y115000D01*
X401760Y109260D01*
X402088Y109124D01*
Y83376D01*
X401760Y83240D01*
X399382Y77500D01*
X401760Y71760D01*
X407500Y69382D01*
X413240Y71760D01*
X415618Y77500D01*
X413240Y83240D01*
X412912Y83376D01*
Y109124D01*
X413240Y109260D01*
X415618Y115000D01*
X413240Y120740D01*
X407500Y123118D01*
D02*
G37*
G36*
X100000Y90000D02*
X80000D01*
Y70000D01*
X100000D01*
Y90000D01*
D02*
G37*
G36*
X37930Y78730D02*
X28859D01*
X31516Y72316D01*
X37930Y69659D01*
Y78730D01*
D02*
G37*
G36*
X255970Y76341D02*
Y67270D01*
X265041D01*
X262384Y73684D01*
X255970Y76341D01*
D02*
G37*
G36*
X179770D02*
Y67270D01*
X188841D01*
X186185Y73684D01*
X179770Y76341D01*
D02*
G37*
G36*
X64600Y90824D02*
X56946Y87654D01*
X53776Y80000D01*
X56946Y72346D01*
X64600Y69176D01*
X72254Y72346D01*
X75424Y80000D01*
X72254Y87654D01*
X64600Y90824D01*
D02*
G37*
G36*
X332170Y76341D02*
Y67270D01*
X341241D01*
X338585Y73684D01*
X332170Y76341D01*
D02*
G37*
G36*
X682860Y89398D02*
X677120Y87020D01*
X674742Y81280D01*
X677120Y75540D01*
X682860Y73162D01*
X688600Y75540D01*
X690978Y81280D01*
X688600Y87020D01*
X682860Y89398D01*
D02*
G37*
G36*
X966470Y86671D02*
Y77470D01*
X975671D01*
X972976Y83976D01*
X966470Y86671D01*
D02*
G37*
G36*
X963930D02*
X957424Y83976D01*
X954729Y77470D01*
X963930D01*
Y86671D01*
D02*
G37*
G36*
X254700Y102224D02*
X247047Y99054D01*
X243876Y91400D01*
X247047Y83746D01*
X254700Y80576D01*
X262354Y83746D01*
X265524Y91400D01*
X262354Y99054D01*
X254700Y102224D01*
D02*
G37*
G36*
X178500D02*
X170847Y99054D01*
X167676Y91400D01*
X170847Y83746D01*
X178500Y80576D01*
X186154Y83746D01*
X189324Y91400D01*
X186154Y99054D01*
X178500Y102224D01*
D02*
G37*
G36*
X848240Y86240D02*
X839470D01*
Y77470D01*
X848240D01*
Y86240D01*
D02*
G37*
G36*
X836930D02*
X828160D01*
Y77470D01*
X836930D01*
Y86240D01*
D02*
G37*
G36*
X941070Y86671D02*
Y77470D01*
X950271D01*
X947576Y83976D01*
X941070Y86671D01*
D02*
G37*
G36*
X938530D02*
X932024Y83976D01*
X929329Y77470D01*
X938530D01*
Y86671D01*
D02*
G37*
G36*
X198730Y443730D02*
X187467D01*
X188188Y440107D01*
X190959Y435959D01*
X195107Y433187D01*
X198730Y432467D01*
Y443730D01*
D02*
G37*
G36*
X165000Y457745D02*
X160123Y456775D01*
X155988Y454012D01*
X153225Y449877D01*
X152255Y445000D01*
X153225Y440123D01*
X155988Y435988D01*
X160123Y433225D01*
X165000Y432255D01*
X169877Y433225D01*
X174012Y435988D01*
X176775Y440123D01*
X177745Y445000D01*
X176775Y449877D01*
X174012Y454012D01*
X169877Y456775D01*
X165000Y457745D01*
D02*
G37*
G36*
X836630Y442841D02*
X830216Y440184D01*
X827559Y433770D01*
X836630D01*
Y442841D01*
D02*
G37*
G36*
X212533Y443730D02*
X201270D01*
Y432467D01*
X204893Y433187D01*
X209041Y435959D01*
X211812Y440107D01*
X212533Y443730D01*
D02*
G37*
G36*
X473718Y433730D02*
X466270D01*
Y426282D01*
X471536Y428464D01*
X473718Y433730D01*
D02*
G37*
G36*
X822500Y442500D02*
X802500D01*
Y422500D01*
X822500D01*
Y442500D01*
D02*
G37*
G36*
X848241Y431230D02*
X839170D01*
Y422159D01*
X845584Y424816D01*
X848241Y431230D01*
D02*
G37*
G36*
X463730Y433730D02*
X456283D01*
X458464Y428464D01*
X463730Y426282D01*
Y433730D01*
D02*
G37*
G36*
X490000Y444200D02*
X483494Y441506D01*
X480800Y435000D01*
X483494Y428494D01*
X490000Y425800D01*
X496506Y428494D01*
X499200Y435000D01*
X496506Y441506D01*
X490000Y444200D01*
D02*
G37*
G36*
X201270Y457533D02*
Y446270D01*
X212533D01*
X211812Y449893D01*
X209041Y454041D01*
X204893Y456812D01*
X201270Y457533D01*
D02*
G37*
G36*
X198730D02*
X195107Y456812D01*
X190959Y454041D01*
X188188Y449893D01*
X187467Y446270D01*
X198730D01*
Y457533D01*
D02*
G37*
G36*
X582930Y455930D02*
X573859D01*
X576516Y449516D01*
X582930Y446859D01*
Y455930D01*
D02*
G37*
G36*
X635000Y468024D02*
X627347Y464854D01*
X624176Y457200D01*
X627347Y449546D01*
X635000Y446376D01*
X642654Y449546D01*
X645824Y457200D01*
X642654Y464854D01*
X635000Y468024D01*
D02*
G37*
G36*
X965200Y468154D02*
X957455Y464945D01*
X954246Y457200D01*
X957455Y449454D01*
X965200Y446246D01*
X972945Y449454D01*
X976154Y457200D01*
X972945Y464945D01*
X965200Y468154D01*
D02*
G37*
G36*
X463730Y443718D02*
X458464Y441536D01*
X456283Y436270D01*
X463730D01*
Y443718D01*
D02*
G37*
G36*
X839170Y442841D02*
Y433770D01*
X848241D01*
X845584Y440184D01*
X839170Y442841D01*
D02*
G37*
G36*
X939800Y468154D02*
X932055Y464945D01*
X928846Y457200D01*
X932055Y449454D01*
X939800Y446246D01*
X947545Y449454D01*
X950754Y457200D01*
X947545Y464945D01*
X939800Y468154D01*
D02*
G37*
G36*
X466270Y443718D02*
Y436270D01*
X473718D01*
X471536Y441536D01*
X466270Y443718D01*
D02*
G37*
G36*
X836630Y431230D02*
X827559D01*
X830216Y424816D01*
X836630Y422159D01*
Y431230D01*
D02*
G37*
G36*
X822500Y417500D02*
X802500D01*
Y397500D01*
X822500D01*
Y417500D01*
D02*
G37*
G36*
X848241Y406230D02*
X839170D01*
Y397159D01*
X845584Y399816D01*
X848241Y406230D01*
D02*
G37*
G36*
X684530Y416741D02*
X678116Y414084D01*
X675459Y407670D01*
X684530D01*
Y416741D01*
D02*
G37*
G36*
X182500Y424578D02*
X175726Y421773D01*
X174602Y419059D01*
X152500D01*
X150471Y418218D01*
X149630Y417870D01*
X127715Y395955D01*
X125000Y397079D01*
X118226Y394273D01*
X115421Y387500D01*
X118226Y380727D01*
X125000Y377921D01*
X131774Y380727D01*
X134579Y387500D01*
X133455Y390215D01*
X154181Y410941D01*
X174601D01*
X175726Y408226D01*
X182500Y405420D01*
X189273Y408226D01*
X192079Y414999D01*
X189273Y421773D01*
X182500Y424578D01*
D02*
G37*
G36*
X836630Y406230D02*
X827559D01*
X830216Y399816D01*
X836630Y397159D01*
Y406230D01*
D02*
G37*
G36*
X772000Y416400D02*
X752000D01*
Y396400D01*
X772000D01*
Y416400D01*
D02*
G37*
G36*
X594200D02*
X574200D01*
Y396400D01*
X594200D01*
Y416400D01*
D02*
G37*
G36*
X888700Y418324D02*
X881047Y415154D01*
X877876Y407500D01*
X881047Y399846D01*
X888700Y396676D01*
X896354Y399846D01*
X899524Y407500D01*
X896354Y415154D01*
X888700Y418324D01*
D02*
G37*
G36*
X863300D02*
X855647Y415154D01*
X852476Y407500D01*
X855647Y399846D01*
X863300Y396676D01*
X870954Y399846D01*
X874124Y407500D01*
X870954Y415154D01*
X863300Y418324D01*
D02*
G37*
G36*
X965200Y442754D02*
X957455Y439546D01*
X954246Y431800D01*
X957455Y424054D01*
X965200Y420846D01*
X972945Y424054D01*
X976154Y431800D01*
X972945Y439546D01*
X965200Y442754D01*
D02*
G37*
G36*
X939800D02*
X932055Y439546D01*
X928846Y431800D01*
X932055Y424054D01*
X939800Y420846D01*
X947545Y424054D01*
X950754Y431800D01*
X947545Y439546D01*
X939800Y442754D01*
D02*
G37*
G36*
X888700Y443324D02*
X881046Y440154D01*
X877876Y432500D01*
X881046Y424846D01*
X888700Y421676D01*
X896354Y424846D01*
X899524Y432500D01*
X896354Y440154D01*
X888700Y443324D01*
D02*
G37*
G36*
X863300D02*
X855646Y440154D01*
X852476Y432500D01*
X855646Y424846D01*
X863300Y421676D01*
X870954Y424846D01*
X874124Y432500D01*
X870954Y440154D01*
X863300Y443324D01*
D02*
G37*
G36*
X839170Y417841D02*
Y408770D01*
X848241D01*
X845584Y415184D01*
X839170Y417841D01*
D02*
G37*
G36*
X636270Y416741D02*
Y407670D01*
X645341D01*
X642684Y414084D01*
X636270Y416741D01*
D02*
G37*
G36*
X633730D02*
X627316Y414084D01*
X624659Y407670D01*
X633730D01*
Y416741D01*
D02*
G37*
G36*
X836630Y417841D02*
X830216Y415184D01*
X827559Y408770D01*
X836630D01*
Y417841D01*
D02*
G37*
G36*
X687070Y416741D02*
Y407670D01*
X696141D01*
X693484Y414084D01*
X687070Y416741D01*
D02*
G37*
G36*
X670400Y467200D02*
X650400D01*
Y447200D01*
X670400D01*
Y467200D01*
D02*
G37*
G36*
X863600Y518954D02*
X855854Y515746D01*
X852646Y508000D01*
X855854Y500255D01*
X863600Y497046D01*
X871346Y500255D01*
X874554Y508000D01*
X871346Y515746D01*
X863600Y518954D01*
D02*
G37*
G36*
X838200D02*
X830454Y515746D01*
X827246Y508000D01*
X830454Y500255D01*
X838200Y497046D01*
X845946Y500255D01*
X849154Y508000D01*
X845946Y515746D01*
X838200Y518954D01*
D02*
G37*
G36*
X187960Y518824D02*
X180307Y515654D01*
X177136Y508000D01*
X180307Y500346D01*
X187960Y497176D01*
X195614Y500346D01*
X198784Y508000D01*
X195614Y515654D01*
X187960Y518824D01*
D02*
G37*
G36*
X901700Y526862D02*
X894482Y525427D01*
X888362Y521338D01*
X884273Y515218D01*
X882838Y508000D01*
X884273Y500782D01*
X888362Y494662D01*
X894482Y490573D01*
X901700Y489138D01*
X908918Y490573D01*
X914870Y494550D01*
X914260Y493940D01*
X911882Y488200D01*
Y354962D01*
X868400Y311481D01*
X846318Y333563D01*
Y349067D01*
X849024Y355600D01*
X845854Y363254D01*
X838200Y366424D01*
X830547Y363254D01*
X827376Y355600D01*
X830082Y349067D01*
Y330200D01*
X832460Y324460D01*
X843485Y313435D01*
X838200Y315624D01*
X830547Y312454D01*
X827376Y304800D01*
X830547Y297146D01*
X836431Y294709D01*
X833540D01*
X830670Y293520D01*
X808830Y271680D01*
X807641Y268810D01*
Y238671D01*
X798032Y229063D01*
X796735Y232195D01*
X805370Y240830D01*
X806559Y243700D01*
Y264300D01*
X805370Y267170D01*
X796735Y275805D01*
X798224Y279400D01*
X795054Y287054D01*
X787400Y290224D01*
X779746Y287054D01*
X776576Y279400D01*
X779746Y271746D01*
X787400Y268576D01*
X790995Y270065D01*
X798441Y262619D01*
Y245381D01*
X790995Y237935D01*
X787400Y239424D01*
X779746Y236254D01*
X776576Y228600D01*
X779746Y220946D01*
X785631Y218509D01*
X782740D01*
X779870Y217320D01*
X776609Y214059D01*
X737747D01*
X740005Y214995D01*
X741553Y218730D01*
X728447D01*
X729995Y214995D01*
X732253Y214059D01*
X705965D01*
X679280Y240743D01*
X682079Y247500D01*
X679274Y254273D01*
X672500Y257079D01*
X665726Y254273D01*
X662921Y247500D01*
X665726Y240727D01*
X669532Y239150D01*
X669630Y238913D01*
X701413Y207130D01*
X704284Y205941D01*
X777711D01*
X776576Y203200D01*
X779746Y195546D01*
X783337Y194059D01*
X671681D01*
X659059Y206681D01*
Y232102D01*
X661774Y233227D01*
X664579Y240000D01*
X661774Y246773D01*
X655000Y249579D01*
X648226Y246773D01*
X646559Y242748D01*
Y249602D01*
X649274Y250727D01*
X652079Y257500D01*
X649274Y264273D01*
X642500Y267079D01*
X635727Y264273D01*
X632921Y257500D01*
X635727Y250727D01*
X638441Y249602D01*
Y242748D01*
X636773Y246773D01*
X630000Y249579D01*
X623227Y246773D01*
X620421Y240000D01*
X623227Y233227D01*
X625941Y232102D01*
Y202500D01*
X627130Y199630D01*
X677230Y149530D01*
X680100Y148341D01*
X829058D01*
X830547Y144746D01*
X838200Y141576D01*
X845854Y144746D01*
X847343Y148341D01*
X879857D01*
X881346Y144746D01*
X889000Y141576D01*
X895941Y144451D01*
Y139681D01*
X892595Y136335D01*
X889000Y137824D01*
X881346Y134654D01*
X878176Y127000D01*
X881346Y119346D01*
X889000Y116176D01*
X896654Y119346D01*
X899824Y127000D01*
X898335Y130595D01*
X902870Y135130D01*
X904059Y138000D01*
Y147136D01*
X904309Y147740D01*
Y157060D01*
X903468Y159089D01*
X903120Y159930D01*
X895180Y167870D01*
X893169Y168703D01*
X896654Y170146D01*
X899824Y177800D01*
X896654Y185454D01*
X895477Y185941D01*
X902500D01*
X905370Y187130D01*
X929181Y210941D01*
X932053D01*
X928846Y203200D01*
X932055Y195455D01*
X939800Y192246D01*
X947545Y195455D01*
X950754Y203200D01*
X947547Y210941D01*
X951600D01*
X954470Y212130D01*
X961514Y219173D01*
X965200Y217646D01*
X972945Y220854D01*
X975941Y228086D01*
Y203714D01*
X972945Y210945D01*
X965200Y214154D01*
X957455Y210945D01*
X954246Y203200D01*
X957455Y195455D01*
X965200Y192246D01*
X972945Y195455D01*
X975941Y202686D01*
Y178314D01*
X972945Y185546D01*
X965200Y188754D01*
X957455Y185546D01*
X954246Y177800D01*
X957455Y170054D01*
X965200Y166846D01*
X972945Y170054D01*
X975941Y177286D01*
Y152914D01*
X972945Y160145D01*
X965200Y163354D01*
X957455Y160145D01*
X954246Y152400D01*
X957455Y144655D01*
X965200Y141446D01*
X972945Y144655D01*
X975941Y151886D01*
Y127514D01*
X972945Y134746D01*
X965200Y137954D01*
X957455Y134746D01*
X954246Y127000D01*
X957455Y119255D01*
X957927Y119059D01*
X947073D01*
X947545Y119255D01*
X950754Y127000D01*
X947545Y134746D01*
X939800Y137954D01*
X932055Y134746D01*
X928846Y127000D01*
X932055Y119255D01*
X932527Y119059D01*
X922500D01*
X919630Y117870D01*
X907419Y105659D01*
X898143D01*
X896654Y109254D01*
X889000Y112424D01*
X881346Y109254D01*
X878176Y101600D01*
X881346Y93946D01*
X889000Y90776D01*
X896654Y93946D01*
X898143Y97541D01*
X909100D01*
X911970Y98730D01*
X924181Y110941D01*
X935907D01*
X932055Y109346D01*
X928846Y101600D01*
X932055Y93855D01*
X939800Y90646D01*
X947545Y93855D01*
X950754Y101600D01*
X947545Y109346D01*
X943693Y110941D01*
X961307D01*
X957455Y109346D01*
X954246Y101600D01*
X957455Y93855D01*
X965200Y90646D01*
X972945Y93855D01*
X976154Y101600D01*
X972945Y109346D01*
X969093Y110941D01*
X972500D01*
X975370Y112130D01*
X982870Y119630D01*
X983218Y120471D01*
X984059Y122500D01*
Y239200D01*
X982870Y242070D01*
X974627Y250313D01*
X976154Y254000D01*
X972945Y261745D01*
X965200Y264954D01*
X957455Y261745D01*
X954246Y254000D01*
X957455Y246255D01*
X965200Y243046D01*
X968887Y244573D01*
X975941Y237519D01*
Y229114D01*
X972945Y236346D01*
X965200Y239554D01*
X957455Y236346D01*
X954246Y228600D01*
X955773Y224913D01*
X949919Y219059D01*
X943211D01*
X947545Y220854D01*
X950754Y228600D01*
X947545Y236346D01*
X939800Y239554D01*
X932055Y236346D01*
X930527Y232659D01*
X906591D01*
X896530Y242720D01*
X893660Y243909D01*
X890769D01*
X896654Y246346D01*
X899824Y254000D01*
X897118Y260533D01*
Y279400D01*
X894740Y285140D01*
X879881Y300000D01*
X925740Y345860D01*
X928118Y351600D01*
Y484837D01*
X930943Y487662D01*
X928846Y482600D01*
X932055Y474855D01*
X939800Y471646D01*
X947545Y474855D01*
X950754Y482600D01*
X947545Y490345D01*
X939800Y493554D01*
X934738Y491457D01*
X940700Y497419D01*
X946646Y499882D01*
X958354D01*
X965200Y497046D01*
X972945Y500255D01*
X976154Y508000D01*
X972945Y515746D01*
X965200Y518954D01*
X958353Y516118D01*
X946647D01*
X939800Y518954D01*
X932055Y515746D01*
X929218Y508899D01*
X915150Y494830D01*
X919127Y500782D01*
X920562Y508000D01*
X919127Y515218D01*
X915038Y521338D01*
X908918Y525427D01*
X901700Y526862D01*
D02*
G37*
G36*
X812800Y518954D02*
X805054Y515746D01*
X801846Y508000D01*
X803364Y504335D01*
X714773Y415744D01*
X711200Y417224D01*
X703547Y414054D01*
X700376Y406400D01*
X703547Y398746D01*
X711200Y395576D01*
X718854Y398746D01*
X722024Y406400D01*
X720544Y409973D01*
X809135Y498564D01*
X812800Y497046D01*
X820546Y500255D01*
X823754Y508000D01*
X820546Y515746D01*
X812800Y518954D01*
D02*
G37*
G36*
X736600D02*
X728855Y515746D01*
X725646Y508000D01*
X728855Y500255D01*
X736600Y497046D01*
X744345Y500255D01*
X747554Y508000D01*
X744345Y515746D01*
X736600Y518954D01*
D02*
G37*
G36*
X711200D02*
X703455Y515746D01*
X700246Y508000D01*
X703455Y500255D01*
X711200Y497046D01*
X718945Y500255D01*
X722154Y508000D01*
X718945Y515746D01*
X711200Y518954D01*
D02*
G37*
G36*
X787400D02*
X779654Y515746D01*
X776446Y508000D01*
X779654Y500255D01*
X787400Y497046D01*
X795145Y500255D01*
X798354Y508000D01*
X795145Y515746D01*
X787400Y518954D01*
D02*
G37*
G36*
X762000D02*
X754255Y515746D01*
X751046Y508000D01*
X754255Y500255D01*
X762000Y497046D01*
X769745Y500255D01*
X772954Y508000D01*
X769745Y515746D01*
X762000Y518954D01*
D02*
G37*
G36*
X223400Y518040D02*
X214630D01*
Y509270D01*
X223400D01*
Y518040D01*
D02*
G37*
G36*
X212090D02*
X203320D01*
Y509270D01*
X212090D01*
Y518040D01*
D02*
G37*
G36*
X265430Y518471D02*
Y509270D01*
X274631D01*
X271936Y515776D01*
X265430Y518471D01*
D02*
G37*
G36*
X262890D02*
X256384Y515776D01*
X253689Y509270D01*
X262890D01*
Y518471D01*
D02*
G37*
G36*
X223400Y506730D02*
X214630D01*
Y497960D01*
X223400D01*
Y506730D01*
D02*
G37*
G36*
X274631Y506730D02*
X265430D01*
Y497529D01*
X271936Y500224D01*
X274631Y506730D01*
D02*
G37*
G36*
X262890D02*
X253689D01*
X256384Y500224D01*
X262890Y497529D01*
Y506730D01*
D02*
G37*
G36*
X212090Y506730D02*
X203320D01*
Y497960D01*
X212090D01*
Y506730D01*
D02*
G37*
G36*
X426680Y518120D02*
X406440D01*
Y497880D01*
X426680D01*
Y518120D01*
D02*
G37*
G36*
X685800Y518954D02*
X678055Y515746D01*
X674846Y508000D01*
X678055Y500255D01*
X685800Y497046D01*
X693546Y500255D01*
X696754Y508000D01*
X693546Y515746D01*
X685800Y518954D01*
D02*
G37*
G36*
X289560D02*
X281814Y515746D01*
X278606Y508000D01*
X281814Y500255D01*
X289560Y497046D01*
X297306Y500255D01*
X300514Y508000D01*
X297306Y515746D01*
X289560Y518954D01*
D02*
G37*
G36*
X238760D02*
X231014Y515746D01*
X227806Y508000D01*
X231014Y500255D01*
X238760Y497046D01*
X246506Y500255D01*
X249714Y508000D01*
X246506Y515746D01*
X238760Y518954D01*
D02*
G37*
G36*
X340360D02*
X332615Y515746D01*
X329406Y508000D01*
X332615Y500255D01*
X340360Y497046D01*
X348106Y500255D01*
X351314Y508000D01*
X348106Y515746D01*
X340360Y518954D01*
D02*
G37*
G36*
X314960D02*
X307215Y515746D01*
X304006Y508000D01*
X307215Y500255D01*
X314960Y497046D01*
X322705Y500255D01*
X325914Y508000D01*
X322705Y515746D01*
X314960Y518954D01*
D02*
G37*
G36*
X850000Y495618D02*
X844260Y493240D01*
X844124Y492912D01*
X832500D01*
X832500Y492912D01*
X829794Y491791D01*
X828673Y491327D01*
X828673Y491327D01*
X827828Y490482D01*
X827500Y490618D01*
X821760Y488240D01*
X819382Y482500D01*
X821760Y476760D01*
X827500Y474382D01*
X833240Y476760D01*
X835447Y482088D01*
X844124D01*
X844260Y481760D01*
X850000Y479382D01*
X855740Y481760D01*
X858118Y487500D01*
X855740Y493240D01*
X850000Y495618D01*
D02*
G37*
G36*
X584200Y518954D02*
X576455Y515746D01*
X573246Y508000D01*
X576455Y500255D01*
X580141Y498727D01*
Y479700D01*
X581330Y476830D01*
X591391Y466769D01*
Y465089D01*
X585470Y467541D01*
Y457200D01*
Y446859D01*
X591391Y449311D01*
Y447050D01*
X592580Y444180D01*
X612130Y424630D01*
X615000Y423441D01*
X645819D01*
X650941Y418319D01*
Y345398D01*
X648226Y344273D01*
X645421Y337500D01*
X648226Y330727D01*
X655000Y327921D01*
X661774Y330727D01*
X664579Y337500D01*
X661774Y344273D01*
X659059Y345398D01*
Y420000D01*
X657870Y422870D01*
X650370Y430370D01*
X647500Y431559D01*
X616681D01*
X599509Y448731D01*
Y455431D01*
X601947Y449546D01*
X609600Y446376D01*
X617254Y449546D01*
X620424Y457200D01*
X617254Y464854D01*
X609600Y468024D01*
X601947Y464854D01*
X599509Y458969D01*
Y468450D01*
X598320Y471320D01*
X588259Y481381D01*
Y498728D01*
X591945Y500255D01*
X595154Y508000D01*
X591945Y515746D01*
X584200Y518954D01*
D02*
G37*
G36*
X582930Y467541D02*
X576516Y464884D01*
X573859Y458470D01*
X582930D01*
Y467541D01*
D02*
G37*
G36*
X152400Y526862D02*
X145182Y525427D01*
X139062Y521338D01*
X134973Y515218D01*
X133538Y508000D01*
X134973Y500782D01*
X139062Y494662D01*
X145182Y490573D01*
X152400Y489138D01*
X159618Y490573D01*
X165738Y494662D01*
X169827Y500782D01*
X171262Y508000D01*
X169827Y515218D01*
X165738Y521338D01*
X159618Y525427D01*
X152400Y526862D01*
D02*
G37*
G36*
X965200Y493554D02*
X957455Y490345D01*
X954246Y482600D01*
X957455Y474855D01*
X965200Y471646D01*
X972945Y474855D01*
X976154Y482600D01*
X972945Y490345D01*
X965200Y493554D01*
D02*
G37*
G36*
X558800Y518954D02*
X551054Y515746D01*
X547846Y508000D01*
X551054Y500255D01*
X558800Y497046D01*
X566545Y500255D01*
X569754Y508000D01*
X566545Y515746D01*
X558800Y518954D01*
D02*
G37*
G36*
X533400D02*
X525654Y515746D01*
X522446Y508000D01*
X525654Y500255D01*
X533400Y497046D01*
X541146Y500255D01*
X544354Y508000D01*
X541146Y515746D01*
X533400Y518954D01*
D02*
G37*
G36*
X635000D02*
X627254Y515746D01*
X624046Y508000D01*
X627254Y500255D01*
X635000Y497046D01*
X642746Y500255D01*
X645954Y508000D01*
X642746Y515746D01*
X635000Y518954D01*
D02*
G37*
G36*
X609600D02*
X601855Y515746D01*
X598646Y508000D01*
X601855Y500255D01*
X609600Y497046D01*
X617346Y500255D01*
X620554Y508000D01*
X617346Y515746D01*
X609600Y518954D01*
D02*
G37*
G36*
X508000D02*
X500255Y515746D01*
X497046Y508000D01*
X500255Y500255D01*
X508000Y497046D01*
X515746Y500255D01*
X518954Y508000D01*
X515746Y515746D01*
X508000Y518954D01*
D02*
G37*
G36*
X391160D02*
X383414Y515746D01*
X380206Y508000D01*
X383414Y500255D01*
X391160Y497046D01*
X398905Y500255D01*
X402114Y508000D01*
X398905Y515746D01*
X391160Y518954D01*
D02*
G37*
G36*
X365760D02*
X358014Y515746D01*
X354806Y508000D01*
X358014Y500255D01*
X365760Y497046D01*
X373506Y500255D01*
X376714Y508000D01*
X373506Y515746D01*
X365760Y518954D01*
D02*
G37*
G36*
X482600D02*
X474855Y515746D01*
X471646Y508000D01*
X474855Y500255D01*
X482600Y497046D01*
X490345Y500255D01*
X493554Y508000D01*
X490345Y515746D01*
X482600Y518954D01*
D02*
G37*
G36*
X457200D02*
X449454Y515746D01*
X446246Y508000D01*
X449454Y500255D01*
X457200Y497046D01*
X464945Y500255D01*
X468154Y508000D01*
X464945Y515746D01*
X457200Y518954D01*
D02*
G37*
G36*
X965200Y341154D02*
X957455Y337946D01*
X954246Y330200D01*
X957455Y322454D01*
X965200Y319246D01*
X972945Y322454D01*
X976154Y330200D01*
X972945Y337946D01*
X965200Y341154D01*
D02*
G37*
G36*
X939800D02*
X932055Y337946D01*
X928846Y330200D01*
X932055Y322454D01*
X939800Y319246D01*
X947545Y322454D01*
X950754Y330200D01*
X947545Y337946D01*
X939800Y341154D01*
D02*
G37*
G36*
X243730Y342930D02*
X234659D01*
X237316Y336516D01*
X243730Y333859D01*
Y342930D01*
D02*
G37*
G36*
X520000Y454579D02*
X513227Y451773D01*
X510421Y445000D01*
X513227Y438227D01*
X515941Y437102D01*
Y337500D01*
X516716Y335628D01*
X515421Y332500D01*
X518227Y325727D01*
X525000Y322921D01*
X531773Y325727D01*
X534579Y332500D01*
X531773Y339273D01*
X525000Y342079D01*
X524059Y341689D01*
Y437102D01*
X526773Y438227D01*
X529579Y445000D01*
X526773Y451773D01*
X520000Y454579D01*
D02*
G37*
G36*
X787400Y315624D02*
X779746Y312454D01*
X776576Y304800D01*
X779746Y297146D01*
X787400Y293976D01*
X795054Y297146D01*
X798224Y304800D01*
X795054Y312454D01*
X787400Y315624D01*
D02*
G37*
G36*
X965200Y315754D02*
X957455Y312546D01*
X954246Y304800D01*
X957455Y297055D01*
X965200Y293846D01*
X972945Y297055D01*
X976154Y304800D01*
X972945Y312546D01*
X965200Y315754D01*
D02*
G37*
G36*
X245000Y329624D02*
X237346Y326453D01*
X234176Y318800D01*
X237346Y311146D01*
X245000Y307976D01*
X252654Y311146D01*
X255824Y318800D01*
X252654Y326453D01*
X245000Y329624D01*
D02*
G37*
G36*
X670400Y314800D02*
X650400D01*
Y294800D01*
X670400D01*
Y314800D01*
D02*
G37*
G36*
X255341Y342930D02*
X246270D01*
Y333859D01*
X252684Y336516D01*
X255341Y342930D01*
D02*
G37*
G36*
X811530Y354330D02*
X802459D01*
X805116Y347916D01*
X811530Y345259D01*
Y354330D01*
D02*
G37*
G36*
X709930D02*
X700859D01*
X703516Y347916D01*
X709930Y345259D01*
Y354330D01*
D02*
G37*
G36*
X823141D02*
X814070D01*
Y345259D01*
X820484Y347916D01*
X823141Y354330D01*
D02*
G37*
G36*
X721541D02*
X712470D01*
Y345259D01*
X718885Y347916D01*
X721541Y354330D01*
D02*
G37*
G36*
X965200Y366554D02*
X957455Y363345D01*
X954246Y355600D01*
X957455Y347854D01*
X965200Y344646D01*
X972945Y347854D01*
X976154Y355600D01*
X972945Y363345D01*
X965200Y366554D01*
D02*
G37*
G36*
X939800D02*
X932055Y363345D01*
X928846Y355600D01*
X932055Y347854D01*
X939800Y344646D01*
X947545Y347854D01*
X950754Y355600D01*
X947545Y363345D01*
X939800Y366554D01*
D02*
G37*
G36*
X863600Y366424D02*
X855947Y363254D01*
X852776Y355600D01*
X855947Y347946D01*
X863600Y344776D01*
X871254Y347946D01*
X874424Y355600D01*
X871254Y363254D01*
X863600Y366424D01*
D02*
G37*
G36*
X736600D02*
X728947Y363254D01*
X725776Y355600D01*
X728947Y347946D01*
X736600Y344776D01*
X744254Y347946D01*
X747424Y355600D01*
X744254Y363254D01*
X736600Y366424D01*
D02*
G37*
G36*
X670741Y278130D02*
X661670D01*
Y269059D01*
X668084Y271716D01*
X670741Y278130D01*
D02*
G37*
G36*
X659130D02*
X650059D01*
X652716Y271716D01*
X659130Y269059D01*
Y278130D01*
D02*
G37*
G36*
X738770Y276553D02*
Y271270D01*
X744053D01*
X742505Y275005D01*
X738770Y276553D01*
D02*
G37*
G36*
X736230D02*
X732495Y275005D01*
X730947Y271270D01*
X736230D01*
Y276553D01*
D02*
G37*
G36*
X553770Y270135D02*
Y263770D01*
X560135D01*
X558271Y268271D01*
X553770Y270135D01*
D02*
G37*
G36*
X551230D02*
X546729Y268271D01*
X544865Y263770D01*
X551230D01*
Y270135D01*
D02*
G37*
G36*
X965200Y290354D02*
X957455Y287146D01*
X954246Y279400D01*
X957455Y271654D01*
X965200Y268446D01*
X972945Y271654D01*
X976154Y279400D01*
X972945Y287146D01*
X965200Y290354D01*
D02*
G37*
G36*
X939800D02*
X932055Y287146D01*
X928846Y279400D01*
X932055Y271654D01*
X939800Y268446D01*
X947545Y271654D01*
X950754Y279400D01*
X947545Y287146D01*
X939800Y290354D01*
D02*
G37*
G36*
X141230Y283730D02*
X134865D01*
X136729Y279229D01*
X141230Y277365D01*
Y283730D01*
D02*
G37*
G36*
X143770Y292635D02*
Y286270D01*
X150135D01*
X148271Y290771D01*
X143770Y292635D01*
D02*
G37*
G36*
X141230D02*
X136729Y290771D01*
X134865Y286270D01*
X141230D01*
Y292635D01*
D02*
G37*
G36*
X939800Y315754D02*
X932055Y312546D01*
X928846Y304800D01*
X932055Y297055D01*
X939800Y293846D01*
X947545Y297055D01*
X950754Y304800D01*
X947545Y312546D01*
X939800Y315754D01*
D02*
G37*
G36*
X575000Y307500D02*
X555000D01*
Y287500D01*
X575000D01*
Y307500D01*
D02*
G37*
G36*
X659130Y289741D02*
X652716Y287084D01*
X650059Y280670D01*
X659130D01*
Y289741D01*
D02*
G37*
G36*
X150135Y283730D02*
X143770D01*
Y277365D01*
X148271Y279229D01*
X150135Y283730D01*
D02*
G37*
G36*
X68540Y315014D02*
X63540D01*
X57687Y313850D01*
X52726Y310534D01*
X49410Y305573D01*
X48246Y299720D01*
X49410Y293867D01*
X52726Y288906D01*
X57687Y285590D01*
X63540Y284426D01*
X68540D01*
X74393Y285590D01*
X79355Y288906D01*
X82670Y293867D01*
X83834Y299720D01*
X82670Y305573D01*
X79355Y310534D01*
X74393Y313850D01*
X68540Y315014D01*
D02*
G37*
G36*
X661670Y289741D02*
Y280670D01*
X670741D01*
X668084Y287084D01*
X661670Y289741D01*
D02*
G37*
G36*
X640000Y380618D02*
X634260Y378240D01*
X631882Y372500D01*
X632018Y372172D01*
X612758Y352912D01*
X562500D01*
X558673Y351327D01*
X558673Y351327D01*
X445328Y237982D01*
X445000Y238118D01*
X439260Y235740D01*
X436882Y230000D01*
X439260Y224260D01*
X445000Y221882D01*
X450740Y224260D01*
X453118Y230000D01*
X452982Y230328D01*
X559878Y337224D01*
X557921Y332500D01*
X560727Y325727D01*
X567500Y322921D01*
X574273Y325727D01*
X575398Y328441D01*
X583319D01*
X598441Y313319D01*
Y304218D01*
X598054Y305154D01*
X590400Y308324D01*
X582746Y305154D01*
X579576Y297500D01*
X582746Y289846D01*
X590400Y286676D01*
X598054Y289846D01*
X598441Y290782D01*
Y197600D01*
X599630Y194730D01*
X744730Y49630D01*
X747600Y48441D01*
X762102D01*
X763226Y45726D01*
X770000Y42921D01*
X776774Y45726D01*
X779579Y52500D01*
X776774Y59274D01*
X770000Y62079D01*
X763226Y59274D01*
X762102Y56559D01*
X749281D01*
X704936Y100904D01*
X706530Y100244D01*
Y106609D01*
X700165D01*
X700825Y105015D01*
X606559Y199281D01*
Y315000D01*
X605718Y317029D01*
X605370Y317870D01*
X587870Y335370D01*
X585000Y336559D01*
X575398D01*
X574273Y339273D01*
X567500Y342079D01*
X562776Y340122D01*
X564742Y342088D01*
X615000D01*
X615000Y342088D01*
X618827Y343673D01*
X639672Y364518D01*
X640000Y364382D01*
X645740Y366760D01*
X648118Y372500D01*
X645740Y378240D01*
X640000Y380618D01*
D02*
G37*
G36*
X201270Y372533D02*
Y361270D01*
X212533D01*
X211812Y364893D01*
X209041Y369041D01*
X204893Y371812D01*
X201270Y372533D01*
D02*
G37*
G36*
X736600Y417224D02*
X728947Y414054D01*
X725776Y406400D01*
X728947Y398746D01*
X736600Y395576D01*
X744254Y398746D01*
X747424Y406400D01*
X744254Y414054D01*
X736600Y417224D01*
D02*
G37*
G36*
X463730Y373718D02*
X458464Y371536D01*
X456283Y366270D01*
X463730D01*
Y373718D01*
D02*
G37*
G36*
X255341Y368330D02*
X246270D01*
Y359259D01*
X252684Y361916D01*
X255341Y368330D01*
D02*
G37*
G36*
X243730D02*
X234659D01*
X237316Y361916D01*
X243730Y359259D01*
Y368330D01*
D02*
G37*
G36*
X684530Y405130D02*
X675459D01*
X678116Y398716D01*
X684530Y396059D01*
Y405130D01*
D02*
G37*
G36*
X198730Y372533D02*
X195107Y371812D01*
X190959Y369041D01*
X188188Y364893D01*
X187467Y361270D01*
X198730D01*
Y372533D01*
D02*
G37*
G36*
X466270Y373718D02*
Y366270D01*
X473718D01*
X471536Y371536D01*
X466270Y373718D01*
D02*
G37*
G36*
X939800Y417354D02*
X932055Y414146D01*
X928846Y406400D01*
X932055Y398655D01*
X939800Y395446D01*
X947545Y398655D01*
X950754Y406400D01*
X947545Y414146D01*
X939800Y417354D01*
D02*
G37*
G36*
X272500Y469579D02*
X265727Y466773D01*
X262921Y460000D01*
X265727Y453227D01*
X267088Y452663D01*
Y427242D01*
X244846Y405000D01*
X235000D01*
Y385000D01*
X255000D01*
Y399846D01*
X276327Y421173D01*
X276327Y421173D01*
X276791Y422294D01*
X277912Y425000D01*
X277912Y425000D01*
Y452663D01*
X279273Y453227D01*
X282079Y460000D01*
X279273Y466773D01*
X272500Y469579D01*
D02*
G37*
G36*
X609600Y417224D02*
X601947Y414054D01*
X598776Y406400D01*
X601947Y398746D01*
X609600Y395576D01*
X617254Y398746D01*
X620424Y406400D01*
X617254Y414054D01*
X609600Y417224D01*
D02*
G37*
G36*
X965200Y417354D02*
X957455Y414146D01*
X954246Y406400D01*
X957455Y398655D01*
X965200Y395446D01*
X972945Y398655D01*
X976154Y406400D01*
X972945Y414146D01*
X965200Y417354D01*
D02*
G37*
G36*
Y391954D02*
X957455Y388745D01*
X954246Y381000D01*
X957455Y373255D01*
X965200Y370046D01*
X972945Y373255D01*
X976154Y381000D01*
X972945Y388745D01*
X965200Y391954D01*
D02*
G37*
G36*
X939800D02*
X932055Y388745D01*
X928846Y381000D01*
X932055Y373255D01*
X939800Y370046D01*
X947545Y373255D01*
X950754Y381000D01*
X947545Y388745D01*
X939800Y391954D01*
D02*
G37*
G36*
X246270Y379941D02*
Y370870D01*
X255341D01*
X252684Y377284D01*
X246270Y379941D01*
D02*
G37*
G36*
X243730Y379941D02*
X237316Y377284D01*
X234659Y370870D01*
X243730D01*
Y379941D01*
D02*
G37*
G36*
X212533Y358730D02*
X201270D01*
Y347467D01*
X204893Y348187D01*
X209041Y350959D01*
X211812Y355107D01*
X212533Y358730D01*
D02*
G37*
G36*
X198730D02*
X187467D01*
X188188Y355107D01*
X190959Y350959D01*
X195107Y348187D01*
X198730Y347467D01*
Y358730D01*
D02*
G37*
G36*
X463730Y363730D02*
X456283D01*
X458464Y358464D01*
X463730Y356282D01*
Y363730D01*
D02*
G37*
G36*
X490000Y374200D02*
X483494Y371506D01*
X480800Y365000D01*
X483494Y358494D01*
X490000Y355800D01*
X496506Y358494D01*
X499200Y365000D01*
X496506Y371506D01*
X490000Y374200D01*
D02*
G37*
G36*
X165000Y372745D02*
X160123Y371775D01*
X155988Y369012D01*
X153225Y364877D01*
X152255Y360000D01*
X153225Y355123D01*
X155988Y350988D01*
X160123Y348225D01*
X165000Y347255D01*
X169877Y348225D01*
X174012Y350988D01*
X176775Y355123D01*
X177745Y360000D01*
X176775Y364877D01*
X174012Y369012D01*
X169877Y371775D01*
X165000Y372745D01*
D02*
G37*
G36*
X246270Y354541D02*
Y345470D01*
X255341D01*
X252684Y351884D01*
X246270Y354541D01*
D02*
G37*
G36*
X243730Y354541D02*
X237316Y351884D01*
X234659Y345470D01*
X243730D01*
Y354541D01*
D02*
G37*
G36*
X899000Y365600D02*
X879000D01*
Y345600D01*
X899000D01*
Y365600D01*
D02*
G37*
G36*
X900000Y477079D02*
X893226Y474273D01*
X890421Y467500D01*
X893226Y460727D01*
X900000Y457921D01*
X900941Y458311D01*
Y399181D01*
X890819Y389059D01*
X791400D01*
X788530Y387870D01*
X766260Y365600D01*
X752000D01*
Y345600D01*
X772000D01*
Y359860D01*
X793082Y380941D01*
X892500D01*
X895370Y382130D01*
X907870Y394630D01*
X908218Y395471D01*
X909059Y397500D01*
Y462500D01*
X908283Y464372D01*
X909579Y467500D01*
X906774Y474273D01*
X900000Y477079D01*
D02*
G37*
G36*
X712470Y365941D02*
Y356870D01*
X721541D01*
X718885Y363284D01*
X712470Y365941D01*
D02*
G37*
G36*
X633730Y405130D02*
X624659D01*
X627316Y398716D01*
X633730Y396059D01*
Y405130D01*
D02*
G37*
G36*
X645341D02*
X636270D01*
Y396059D01*
X642684Y398716D01*
X645341Y405130D01*
D02*
G37*
G36*
X814070Y365941D02*
Y356870D01*
X823141D01*
X820484Y363284D01*
X814070Y365941D01*
D02*
G37*
G36*
X696141Y405130D02*
X687070D01*
Y396059D01*
X693484Y398716D01*
X696141Y405130D01*
D02*
G37*
G36*
X473718Y363730D02*
X466270D01*
Y356282D01*
X471536Y358464D01*
X473718Y363730D01*
D02*
G37*
G36*
X811530Y365941D02*
X805116Y363284D01*
X802459Y356870D01*
X811530D01*
Y365941D01*
D02*
G37*
G36*
X709930D02*
X703516Y363284D01*
X700859Y356870D01*
X709930D01*
Y365941D01*
D02*
G37*
%LPD*%
G36*
X883998Y237352D02*
X881346Y236254D01*
X878176Y228600D01*
X881346Y220946D01*
X889000Y217776D01*
X896654Y220946D01*
X899632Y228137D01*
X902040Y225730D01*
X902880Y225382D01*
X904910Y224541D01*
X914909D01*
X909995Y222505D01*
X908447Y218770D01*
X921553D01*
X920005Y222505D01*
X915091Y224541D01*
X930527D01*
X932055Y220854D01*
X936389Y219059D01*
X927500D01*
X924630Y217870D01*
X920537Y213777D01*
X921553Y216230D01*
X916270D01*
Y210947D01*
X918723Y211963D01*
X900819Y194059D01*
X893167D01*
X896684Y195516D01*
X899341Y201930D01*
X889000D01*
X878659D01*
X881316Y195516D01*
X884833Y194059D01*
X862500D01*
X860471Y193218D01*
X859630Y192870D01*
X848619Y181859D01*
X847343D01*
X845854Y185454D01*
X838200Y188624D01*
X830547Y185454D01*
X827376Y177800D01*
X830547Y170146D01*
X833172Y169059D01*
X820396D01*
X819272Y171773D01*
X812498Y174579D01*
X805725Y171773D01*
X804601Y169059D01*
X797400D01*
Y187800D01*
X796040D01*
X819570Y211330D01*
X819918Y212171D01*
X820759Y214200D01*
Y256218D01*
X834605Y270065D01*
X838200Y268576D01*
X845854Y271746D01*
X846952Y274398D01*
X883998Y237352D01*
D02*
G37*
%LPC*%
G36*
X890270Y213541D02*
Y204470D01*
X899341D01*
X896684Y210884D01*
X890270Y213541D01*
D02*
G37*
G36*
X887730Y213541D02*
X881316Y210884D01*
X878659Y204470D01*
X887730D01*
Y213541D01*
D02*
G37*
G36*
X838200Y214024D02*
X830547Y210854D01*
X827376Y203200D01*
X830547Y195546D01*
X838200Y192376D01*
X845854Y195546D01*
X849024Y203200D01*
X845854Y210854D01*
X838200Y214024D01*
D02*
G37*
G36*
Y264824D02*
X830547Y261654D01*
X827376Y254000D01*
X830547Y246346D01*
X838200Y243176D01*
X845854Y246346D01*
X849024Y254000D01*
X845854Y261654D01*
X838200Y264824D01*
D02*
G37*
G36*
Y239424D02*
X830547Y236254D01*
X827376Y228600D01*
X830547Y220946D01*
X838200Y217776D01*
X845854Y220946D01*
X849024Y228600D01*
X845854Y236254D01*
X838200Y239424D01*
D02*
G37*
G36*
X913730Y216230D02*
X908447D01*
X909995Y212495D01*
X913730Y210947D01*
Y216230D01*
D02*
G37*
%LPD*%
D23*
X827500Y482500D02*
X832500Y487500D01*
X850000D01*
X392499Y132500D02*
X392500Y132500D01*
Y36900D02*
Y132500D01*
X381000Y25400D02*
X392500Y36900D01*
X615000Y347500D02*
X640000Y372500D01*
X562500Y347500D02*
X615000D01*
X445000Y230000D02*
X562500Y347500D01*
X407500Y77500D02*
Y115000D01*
Y77300D02*
Y77500D01*
X272500Y425000D02*
Y460000D01*
X245000Y397500D02*
X272500Y425000D01*
X245000Y395000D02*
Y397500D01*
D24*
X892500Y385000D02*
X905000Y397500D01*
X900000Y467500D02*
X905000Y462500D01*
Y397500D02*
Y462500D01*
X747600Y52500D02*
X770000D01*
X602500Y197600D02*
X747600Y52500D01*
X602500Y197600D02*
Y315000D01*
X182499Y415000D02*
X182500Y414999D01*
X152500Y415000D02*
X182499D01*
X125000Y387500D02*
X152500Y415000D01*
X787400Y279400D02*
X802500Y264300D01*
Y243700D02*
Y264300D01*
X787400Y228600D02*
X802500Y243700D01*
X682500Y165000D02*
X892310D01*
X838200Y304800D02*
X842700D01*
X816700Y257900D02*
X838200Y279400D01*
X816700Y214200D02*
Y257900D01*
X792500Y190000D02*
X816700Y214200D01*
X892310Y165000D02*
X900250Y157060D01*
X670000Y190000D02*
X792500D01*
X889000Y127000D02*
X900000Y138000D01*
Y147490D01*
X900250Y147740D01*
Y157060D01*
X680100Y152400D02*
X838200D01*
X889000D02*
X889000Y152400D01*
X838200Y152400D02*
X889000D01*
X630000Y202500D02*
X680100Y152400D01*
X642500Y205000D02*
X682500Y165000D01*
X655000Y205000D02*
X670000Y190000D01*
X655000Y205000D02*
Y240000D01*
X642500Y205000D02*
Y257500D01*
X630000Y202500D02*
Y240000D01*
X655000Y337500D02*
Y420000D01*
X647500Y427500D02*
X655000Y420000D01*
X584200Y479700D02*
X595450Y468450D01*
X584200Y479700D02*
Y508000D01*
X595450Y447050D02*
X615000Y427500D01*
X647500D01*
X595450Y447050D02*
Y468450D01*
X522500Y42500D02*
X545000D01*
X558800Y25400D02*
Y28700D01*
X545000Y42500D02*
X558800Y28700D01*
X432500Y155000D02*
X535000Y52500D01*
X582500D01*
X609600Y25400D01*
X297700Y150000D02*
X425000D01*
X527500Y47500D01*
X562100D02*
X584200Y25400D01*
X527500Y47500D02*
X562100D01*
X692500Y12500D02*
X705000Y25000D01*
X330200Y25400D02*
X337100D01*
X350000Y12500D01*
X692500D01*
X585000Y332500D02*
X602500Y315000D01*
X567500Y332500D02*
X585000D01*
X520000Y337500D02*
Y445000D01*
Y337500D02*
X525000Y332500D01*
X762000Y355600D02*
X791400Y385000D01*
X892500D01*
X965200Y254000D02*
X980000Y239200D01*
X972500Y115000D02*
X980000Y122500D01*
Y239200D01*
X922500Y115000D02*
X972500D01*
X909100Y101600D02*
X922500Y115000D01*
X889000Y101600D02*
X909100D01*
X849450Y277640D02*
Y284060D01*
X842860Y290650D02*
X849450Y284060D01*
X887240Y239850D02*
X893660D01*
X849450Y277640D02*
X887240Y239850D01*
X833540Y290650D02*
X842860D01*
X811700Y268810D02*
X833540Y290650D01*
X811700Y236990D02*
Y268810D01*
X893660Y239850D02*
X904910Y228600D01*
X939800D01*
X789160Y214450D02*
X811700Y236990D01*
X782740Y214450D02*
X789160D01*
X778290Y210000D02*
X782740Y214450D01*
X672500Y241784D02*
Y247500D01*
Y241784D02*
X704284Y210000D01*
X778290D01*
X951600Y215000D02*
X965200Y228600D01*
X927500Y215000D02*
X951600D01*
X902500Y190000D02*
X927500Y215000D01*
X862500Y190000D02*
X902500D01*
X850300Y177800D02*
X862500Y190000D01*
X838200Y177800D02*
X850300D01*
X368900Y155000D02*
X432500D01*
X330900Y193000D02*
X368900Y155000D01*
X254700Y183510D02*
Y193000D01*
X420000Y145000D02*
X522500Y42500D01*
X178500Y193000D02*
X226060Y145440D01*
Y145000D02*
X420000D01*
X254700Y193000D02*
X297700Y150000D01*
X585000Y166840D02*
Y250000D01*
Y166840D02*
X661810Y90030D01*
X705000Y25000D02*
Y39220D01*
X661810Y89704D02*
Y90030D01*
Y89704D02*
X670560Y80954D01*
Y73660D02*
Y80954D01*
Y73660D02*
X705000Y39220D01*
D25*
X838200Y330200D02*
X868400Y300000D01*
X838200Y330200D02*
Y355600D01*
X310000Y369600D02*
X432100D01*
X284600Y344200D02*
X310000Y369600D01*
X245000Y344200D02*
X284600D01*
X465000Y402500D02*
Y435000D01*
Y365000D02*
Y402500D01*
X432100Y369600D02*
X465000Y402500D01*
X149200Y311700D02*
X197500Y360000D01*
Y445000D01*
Y360000D02*
X200000Y362500D01*
X245000Y369600D02*
X310000D01*
X920000Y488200D02*
X939800Y508000D01*
X920000Y351600D02*
Y488200D01*
X868400Y300000D02*
X920000Y351600D01*
X868400Y300000D02*
X889000Y279400D01*
Y254000D02*
Y279400D01*
X939800Y508000D02*
X965200D01*
D26*
X711200Y406400D02*
X812800Y508000D01*
D28*
X304800Y25400D02*
D03*
X863600Y508000D02*
D03*
X838200D02*
D03*
X238760D02*
D03*
X264160D02*
D03*
X289560D02*
D03*
X314960D02*
D03*
X340360D02*
D03*
X365760D02*
D03*
X391160D02*
D03*
X457200D02*
D03*
X482600D02*
D03*
X508000D02*
D03*
X533400D02*
D03*
X558800D02*
D03*
X584200D02*
D03*
X558800Y25400D02*
D03*
X533400D02*
D03*
X635000D02*
D03*
X609600D02*
D03*
X584200D02*
D03*
X431800D02*
D03*
X406400D02*
D03*
X381000D02*
D03*
X355600D02*
D03*
X330200D02*
D03*
X660400D02*
D03*
X685800D02*
D03*
X762000D02*
D03*
X787400D02*
D03*
X812800D02*
D03*
X838200D02*
D03*
X863600D02*
D03*
X889000D02*
D03*
X914400D02*
D03*
X939800Y508000D02*
D03*
X965200D02*
D03*
X939800Y482600D02*
D03*
X965200D02*
D03*
X939800Y457200D02*
D03*
X965200D02*
D03*
X939800Y431800D02*
D03*
X965200D02*
D03*
X939800Y406400D02*
D03*
X965200D02*
D03*
X939800Y381000D02*
D03*
X965200D02*
D03*
X939800Y355600D02*
D03*
X965200D02*
D03*
X939800Y330200D02*
D03*
X965200D02*
D03*
X939800Y304800D02*
D03*
X965200D02*
D03*
X939800Y279400D02*
D03*
X965200D02*
D03*
X939800Y254000D02*
D03*
X965200D02*
D03*
X939800Y228600D02*
D03*
X965200D02*
D03*
X939800Y203200D02*
D03*
X965200D02*
D03*
X939800Y177800D02*
D03*
X965200D02*
D03*
X939800Y152400D02*
D03*
X965200D02*
D03*
X939800Y127000D02*
D03*
X965200D02*
D03*
X939800Y101600D02*
D03*
X965200D02*
D03*
X939800Y76200D02*
D03*
X965200D02*
D03*
X812800Y508000D02*
D03*
X762000D02*
D03*
X711200D02*
D03*
X609600D02*
D03*
X787400D02*
D03*
X736600D02*
D03*
X685800D02*
D03*
X635000D02*
D03*
D29*
X416560D02*
D03*
X508000Y25400D02*
D03*
X457200D02*
D03*
X736600D02*
D03*
D30*
X152400Y508000D02*
D03*
X965200Y25400D02*
D03*
X901700Y508000D02*
D03*
D31*
X565000Y297500D02*
D03*
X90000Y130000D02*
D03*
Y80000D02*
D03*
X660400Y457200D02*
D03*
X812500Y407500D02*
D03*
X889000Y355600D02*
D03*
X762000D02*
D03*
Y406400D02*
D03*
X584200D02*
D03*
X213360Y508000D02*
D03*
X812500Y432500D02*
D03*
D32*
X590400Y297500D02*
D03*
X64600Y130000D02*
D03*
X39200D02*
D03*
X90000Y104600D02*
D03*
X64600D02*
D03*
X39200D02*
D03*
X64600Y80000D02*
D03*
X39200D02*
D03*
X90000Y54600D02*
D03*
X64600D02*
D03*
X39200D02*
D03*
X660400Y279400D02*
D03*
X889000Y254000D02*
D03*
Y228600D02*
D03*
Y203200D02*
D03*
Y177800D02*
D03*
Y152400D02*
D03*
Y127000D02*
D03*
Y101600D02*
D03*
X838200Y127000D02*
D03*
Y304800D02*
D03*
Y279400D02*
D03*
Y254000D02*
D03*
Y228600D02*
D03*
Y203200D02*
D03*
Y177800D02*
D03*
Y152400D02*
D03*
Y101600D02*
D03*
X787400D02*
D03*
Y127000D02*
D03*
X787400Y203200D02*
D03*
Y228600D02*
D03*
Y254000D02*
D03*
Y279400D02*
D03*
Y304800D02*
D03*
X584200Y457200D02*
D03*
X609600D02*
D03*
X635000D02*
D03*
X888700Y407500D02*
D03*
X863300D02*
D03*
X837900D02*
D03*
X330900Y91400D02*
D03*
Y66000D02*
D03*
X812800Y355600D02*
D03*
X838200D02*
D03*
X863600D02*
D03*
X254700Y91400D02*
D03*
Y66000D02*
D03*
X178500Y91400D02*
D03*
Y66000D02*
D03*
X330900Y193000D02*
D03*
Y167600D02*
D03*
X254700Y193000D02*
D03*
Y167600D02*
D03*
X178500Y193000D02*
D03*
Y167600D02*
D03*
X736600Y355600D02*
D03*
X711200D02*
D03*
X685800Y406400D02*
D03*
X711200D02*
D03*
X736600D02*
D03*
X609600D02*
D03*
X635000D02*
D03*
X245000Y318800D02*
D03*
Y344200D02*
D03*
Y369600D02*
D03*
X187960Y508000D02*
D03*
X457200Y182880D02*
D03*
X837900Y432500D02*
D03*
X863300D02*
D03*
X888700D02*
D03*
D33*
X660400Y304800D02*
D03*
X889000Y76200D02*
D03*
X838200Y76200D02*
D03*
X787400D02*
D03*
X787400Y177800D02*
D03*
X330900Y116800D02*
D03*
X254700D02*
D03*
X178500D02*
D03*
X330900Y218400D02*
D03*
X254700D02*
D03*
X178500D02*
D03*
X245000Y395000D02*
D03*
X457200Y157480D02*
D03*
D34*
X465000Y435000D02*
D03*
X490000D02*
D03*
X465000Y365000D02*
D03*
X490000D02*
D03*
D35*
X200000Y360000D02*
D03*
X165000D02*
D03*
Y445000D02*
D03*
X200000D02*
D03*
D36*
X66040Y248920D02*
D03*
Y299720D02*
D03*
D37*
X657860Y81280D02*
D03*
X682860D02*
D03*
X827500Y482500D02*
D03*
X850000Y487500D02*
D03*
X142500Y285000D02*
D03*
X432500Y115000D02*
D03*
X552500Y262500D02*
D03*
X510000D02*
D03*
X707800Y107879D02*
D03*
X392499Y132500D02*
D03*
X640000Y372500D02*
D03*
X445000Y230000D02*
D03*
X407500Y115000D02*
D03*
Y77500D02*
D03*
X419100Y200660D02*
D03*
D38*
X558800Y93980D02*
D03*
X182500Y414999D02*
D03*
X125000Y387500D02*
D03*
X128500Y154000D02*
D03*
X812498Y165000D02*
D03*
X507500Y107500D02*
D03*
X655000Y240000D02*
D03*
X642500Y257500D02*
D03*
X630000Y240000D02*
D03*
X655000Y337500D02*
D03*
X585000Y250000D02*
D03*
X567500Y332500D02*
D03*
X770000Y52500D02*
D03*
X520000Y445000D02*
D03*
X525000Y332500D02*
D03*
X900000Y467500D02*
D03*
X672500Y247500D02*
D03*
X272500Y460000D02*
D03*
D39*
X915000Y217500D02*
D03*
Y250000D02*
D03*
X735000Y220000D02*
D03*
X737500Y270000D02*
D03*
M02*
