G04 Layer_Color=8421504*
%FSLAX44Y44*%
%MOMM*%
G71*
G01*
G75*
G04:AMPARAMS|DCode=10|XSize=1mm|YSize=0.9mm|CornerRadius=0.1125mm|HoleSize=0mm|Usage=FLASHONLY|Rotation=90.000|XOffset=0mm|YOffset=0mm|HoleType=Round|Shape=RoundedRectangle|*
%AMROUNDEDRECTD10*
21,1,1.0000,0.6750,0,0,90.0*
21,1,0.7750,0.9000,0,0,90.0*
1,1,0.2250,0.3375,0.3875*
1,1,0.2250,0.3375,-0.3875*
1,1,0.2250,-0.3375,-0.3875*
1,1,0.2250,-0.3375,0.3875*
%
%ADD10ROUNDEDRECTD10*%
%ADD11R,0.7000X0.9000*%
%ADD12R,0.9000X0.7000*%
G04:AMPARAMS|DCode=13|XSize=1.016mm|YSize=1.016mm|CornerRadius=0.1524mm|HoleSize=0mm|Usage=FLASHONLY|Rotation=90.000|XOffset=0mm|YOffset=0mm|HoleType=Round|Shape=RoundedRectangle|*
%AMROUNDEDRECTD13*
21,1,1.0160,0.7112,0,0,90.0*
21,1,0.7112,1.0160,0,0,90.0*
1,1,0.3048,0.3556,0.3556*
1,1,0.3048,0.3556,-0.3556*
1,1,0.3048,-0.3556,-0.3556*
1,1,0.3048,-0.3556,0.3556*
%
%ADD13ROUNDEDRECTD13*%
%ADD14R,0.8000X0.9000*%
%ADD15R,1.2192X0.8128*%
G04:AMPARAMS|DCode=16|XSize=1mm|YSize=0.9mm|CornerRadius=0.1125mm|HoleSize=0mm|Usage=FLASHONLY|Rotation=0.000|XOffset=0mm|YOffset=0mm|HoleType=Round|Shape=RoundedRectangle|*
%AMROUNDEDRECTD16*
21,1,1.0000,0.6750,0,0,0.0*
21,1,0.7750,0.9000,0,0,0.0*
1,1,0.2250,0.3875,-0.3375*
1,1,0.2250,-0.3875,-0.3375*
1,1,0.2250,-0.3875,0.3375*
1,1,0.2250,0.3875,0.3375*
%
%ADD16ROUNDEDRECTD16*%
%ADD17R,0.9000X0.8000*%
%ADD18R,2.0000X5.3000*%
%ADD19R,0.6096X2.2098*%
%ADD20R,0.7620X1.1430*%
%ADD21R,2.4000X3.3000*%
%ADD22R,0.8128X0.9144*%
D10*
X878500Y332500D02*
D03*
X861500D02*
D03*
X836500Y380000D02*
D03*
X853500D02*
D03*
X833500Y457500D02*
D03*
X816500D02*
D03*
X128500Y105000D02*
D03*
X111500D02*
D03*
X128500Y132500D02*
D03*
X111500D02*
D03*
X128500Y55000D02*
D03*
X111500D02*
D03*
X128500Y80000D02*
D03*
X111500D02*
D03*
X621000Y370000D02*
D03*
X604000D02*
D03*
X714000Y377500D02*
D03*
X731000D02*
D03*
X848500Y50000D02*
D03*
X831500D02*
D03*
X711500Y122500D02*
D03*
X728500D02*
D03*
X541000Y107500D02*
D03*
X524000D02*
D03*
D11*
X225000Y285000D02*
D03*
X240000D02*
D03*
X567500Y232500D02*
D03*
X552500D02*
D03*
X495000D02*
D03*
X510000D02*
D03*
D12*
X295000Y402500D02*
D03*
Y387500D02*
D03*
X317500Y402500D02*
D03*
Y387500D02*
D03*
X635000Y297300D02*
D03*
Y312300D02*
D03*
X990000Y270000D02*
D03*
Y255000D02*
D03*
X765000Y295000D02*
D03*
Y280000D02*
D03*
X747500Y280000D02*
D03*
Y295000D02*
D03*
X765000Y242500D02*
D03*
Y227500D02*
D03*
X747500Y242500D02*
D03*
Y227500D02*
D03*
X765000Y175000D02*
D03*
Y190000D02*
D03*
X747500Y190000D02*
D03*
Y175000D02*
D03*
X785000Y465000D02*
D03*
Y450000D02*
D03*
X767500Y465000D02*
D03*
Y450000D02*
D03*
X494800Y160379D02*
D03*
Y175379D02*
D03*
X685000Y450000D02*
D03*
Y465000D02*
D03*
X705000D02*
D03*
Y450000D02*
D03*
D13*
X181270Y285000D02*
D03*
X163610D02*
D03*
D14*
X553000Y247500D02*
D03*
X567000D02*
D03*
X509500D02*
D03*
X495500D02*
D03*
D15*
X367500Y253356D02*
D03*
Y271500D02*
D03*
D16*
X152100Y193800D02*
D03*
Y210800D02*
D03*
X725000Y466000D02*
D03*
Y449000D02*
D03*
X760000Y133500D02*
D03*
Y116500D02*
D03*
X230000Y193800D02*
D03*
Y210800D02*
D03*
X305400Y193800D02*
D03*
Y210800D02*
D03*
X152100Y91300D02*
D03*
Y108300D02*
D03*
X230000Y91300D02*
D03*
Y108300D02*
D03*
X305400Y91300D02*
D03*
Y108300D02*
D03*
X305400Y56300D02*
D03*
Y73300D02*
D03*
X230000Y56300D02*
D03*
Y73300D02*
D03*
X152100Y56300D02*
D03*
Y73300D02*
D03*
X305400Y158800D02*
D03*
Y175800D02*
D03*
X230000Y158800D02*
D03*
Y175800D02*
D03*
X152100Y158800D02*
D03*
Y175800D02*
D03*
D17*
X730000Y294500D02*
D03*
Y280500D02*
D03*
Y242000D02*
D03*
Y228000D02*
D03*
X730000Y189500D02*
D03*
Y175500D02*
D03*
X619760Y79360D02*
D03*
Y93360D02*
D03*
X721360Y79360D02*
D03*
Y93360D02*
D03*
D18*
X29500Y487500D02*
D03*
X95500D02*
D03*
D19*
X513250Y194041D02*
D03*
X525950D02*
D03*
X538650D02*
D03*
X551350D02*
D03*
Y141717D02*
D03*
X538650D02*
D03*
X525950D02*
D03*
X513250D02*
D03*
D20*
X591500Y218385D02*
D03*
X604200D02*
D03*
X616900D02*
D03*
X629600D02*
D03*
X642300D02*
D03*
X655000D02*
D03*
X667700D02*
D03*
X680400D02*
D03*
X693100D02*
D03*
Y122500D02*
D03*
X680400D02*
D03*
X667700D02*
D03*
X655000D02*
D03*
X642300D02*
D03*
X629600D02*
D03*
X616900D02*
D03*
X604200D02*
D03*
X591500D02*
D03*
D21*
X32750Y425000D02*
D03*
X102250D02*
D03*
D22*
X248920Y481076D02*
D03*
X258572Y459900D02*
D03*
X239420D02*
D03*
M02*
