G04 Layer_Physical_Order=1*
G04 Layer_Color=255*
%FSLAX44Y44*%
%MOMM*%
G71*
G01*
G75*
G04:AMPARAMS|DCode=10|XSize=1mm|YSize=0.9mm|CornerRadius=0.1125mm|HoleSize=0mm|Usage=FLASHONLY|Rotation=90.000|XOffset=0mm|YOffset=0mm|HoleType=Round|Shape=RoundedRectangle|*
%AMROUNDEDRECTD10*
21,1,1.0000,0.6750,0,0,90.0*
21,1,0.7750,0.9000,0,0,90.0*
1,1,0.2250,0.3375,0.3875*
1,1,0.2250,0.3375,-0.3875*
1,1,0.2250,-0.3375,-0.3875*
1,1,0.2250,-0.3375,0.3875*
%
%ADD10ROUNDEDRECTD10*%
%ADD11R,0.7000X0.9000*%
%ADD12R,0.9000X0.7000*%
G04:AMPARAMS|DCode=13|XSize=1.016mm|YSize=1.016mm|CornerRadius=0.1524mm|HoleSize=0mm|Usage=FLASHONLY|Rotation=90.000|XOffset=0mm|YOffset=0mm|HoleType=Round|Shape=RoundedRectangle|*
%AMROUNDEDRECTD13*
21,1,1.0160,0.7112,0,0,90.0*
21,1,0.7112,1.0160,0,0,90.0*
1,1,0.3048,0.3556,0.3556*
1,1,0.3048,0.3556,-0.3556*
1,1,0.3048,-0.3556,-0.3556*
1,1,0.3048,-0.3556,0.3556*
%
%ADD13ROUNDEDRECTD13*%
%ADD14R,0.8000X0.9000*%
%ADD15R,1.2192X0.8128*%
G04:AMPARAMS|DCode=16|XSize=1mm|YSize=0.9mm|CornerRadius=0.1125mm|HoleSize=0mm|Usage=FLASHONLY|Rotation=0.000|XOffset=0mm|YOffset=0mm|HoleType=Round|Shape=RoundedRectangle|*
%AMROUNDEDRECTD16*
21,1,1.0000,0.6750,0,0,0.0*
21,1,0.7750,0.9000,0,0,0.0*
1,1,0.2250,0.3875,-0.3375*
1,1,0.2250,-0.3875,-0.3375*
1,1,0.2250,-0.3875,0.3375*
1,1,0.2250,0.3875,0.3375*
%
%ADD16ROUNDEDRECTD16*%
%ADD17R,0.9000X0.8000*%
%ADD18R,2.0000X5.3000*%
%ADD19R,0.6096X2.2098*%
%ADD20R,0.7620X1.1430*%
%ADD21R,2.4000X3.3000*%
%ADD22R,0.8128X0.9144*%
%ADD23C,0.5000*%
%ADD24C,0.2500*%
%ADD25C,1.0000*%
%ADD26C,0.2540*%
%ADD27C,2.0000*%
%ADD28C,1.5240*%
%ADD29R,1.5240X1.5240*%
%ADD30C,1.6000*%
%ADD31R,1.5000X1.5000*%
%ADD32C,1.5000*%
%ADD33R,1.5000X1.5000*%
%ADD34C,1.2000*%
%ADD35C,2.0000*%
%ADD36O,3.0000X2.5000*%
%ADD37C,1.0000*%
%ADD38C,1.2700*%
%ADD39C,0.8000*%
D10*
X878500Y332500D02*
D03*
X861500D02*
D03*
X836500Y380000D02*
D03*
X853500D02*
D03*
X833500Y457500D02*
D03*
X816500D02*
D03*
X128500Y105000D02*
D03*
X111500D02*
D03*
X128500Y132500D02*
D03*
X111500D02*
D03*
X128500Y55000D02*
D03*
X111500D02*
D03*
X128500Y80000D02*
D03*
X111500D02*
D03*
X621000Y370000D02*
D03*
X604000D02*
D03*
X714000Y377500D02*
D03*
X731000D02*
D03*
X848500Y50000D02*
D03*
X831500D02*
D03*
X711500Y122500D02*
D03*
X728500D02*
D03*
X541000Y107500D02*
D03*
X524000D02*
D03*
D11*
X225000Y285000D02*
D03*
X240000D02*
D03*
X567500Y232500D02*
D03*
X552500D02*
D03*
X495000D02*
D03*
X510000D02*
D03*
D12*
X295000Y402500D02*
D03*
Y387500D02*
D03*
X317500Y402500D02*
D03*
Y387500D02*
D03*
X635000Y297300D02*
D03*
Y312300D02*
D03*
X990000Y270000D02*
D03*
Y255000D02*
D03*
X765000Y295000D02*
D03*
Y280000D02*
D03*
X747500Y280000D02*
D03*
Y295000D02*
D03*
X765000Y242500D02*
D03*
Y227500D02*
D03*
X747500Y242500D02*
D03*
Y227500D02*
D03*
X765000Y175000D02*
D03*
Y190000D02*
D03*
X747500Y190000D02*
D03*
Y175000D02*
D03*
X785000Y465000D02*
D03*
Y450000D02*
D03*
X767500Y465000D02*
D03*
Y450000D02*
D03*
X494800Y160379D02*
D03*
Y175379D02*
D03*
X685000Y450000D02*
D03*
Y465000D02*
D03*
X705000D02*
D03*
Y450000D02*
D03*
D13*
X181270Y285000D02*
D03*
X163610D02*
D03*
D14*
X553000Y247500D02*
D03*
X567000D02*
D03*
X509500D02*
D03*
X495500D02*
D03*
D15*
X367500Y253356D02*
D03*
Y271500D02*
D03*
D16*
X152100Y193800D02*
D03*
Y210800D02*
D03*
X725000Y466000D02*
D03*
Y449000D02*
D03*
X760000Y133500D02*
D03*
Y116500D02*
D03*
X230000Y193800D02*
D03*
Y210800D02*
D03*
X305400Y193800D02*
D03*
Y210800D02*
D03*
X152100Y91300D02*
D03*
Y108300D02*
D03*
X230000Y91300D02*
D03*
Y108300D02*
D03*
X305400Y91300D02*
D03*
Y108300D02*
D03*
X305400Y56300D02*
D03*
Y73300D02*
D03*
X230000Y56300D02*
D03*
Y73300D02*
D03*
X152100Y56300D02*
D03*
Y73300D02*
D03*
X305400Y158800D02*
D03*
Y175800D02*
D03*
X230000Y158800D02*
D03*
Y175800D02*
D03*
X152100Y158800D02*
D03*
Y175800D02*
D03*
D17*
X730000Y294500D02*
D03*
Y280500D02*
D03*
Y242000D02*
D03*
Y228000D02*
D03*
X730000Y189500D02*
D03*
Y175500D02*
D03*
X619760Y79360D02*
D03*
Y93360D02*
D03*
X721360Y79360D02*
D03*
Y93360D02*
D03*
D18*
X29500Y487500D02*
D03*
X95500D02*
D03*
D19*
X513250Y194041D02*
D03*
X525950D02*
D03*
X538650D02*
D03*
X551350D02*
D03*
Y141717D02*
D03*
X538650D02*
D03*
X525950D02*
D03*
X513250D02*
D03*
D20*
X591500Y218385D02*
D03*
X604200D02*
D03*
X616900D02*
D03*
X629600D02*
D03*
X642300D02*
D03*
X655000D02*
D03*
X667700D02*
D03*
X680400D02*
D03*
X693100D02*
D03*
Y122500D02*
D03*
X680400D02*
D03*
X667700D02*
D03*
X655000D02*
D03*
X642300D02*
D03*
X629600D02*
D03*
X616900D02*
D03*
X604200D02*
D03*
X591500D02*
D03*
D21*
X32750Y425000D02*
D03*
X102250D02*
D03*
D22*
X248920Y481076D02*
D03*
X258572Y459900D02*
D03*
X239420D02*
D03*
D23*
X838200Y355600D02*
X851300Y342500D01*
X868500D01*
X878500Y332500D01*
X835900D02*
X861500D01*
X812800Y355600D02*
X835900Y332500D01*
X863600Y457600D02*
Y508000D01*
X850000Y471200D02*
X863600Y457600D01*
X850000Y471200D02*
Y487500D01*
X838200Y472393D02*
Y508000D01*
Y472393D02*
X863300Y447293D01*
Y432500D02*
Y447293D01*
X812500Y432500D02*
X816500Y436500D01*
Y455000D01*
X833500D02*
X837900Y450600D01*
Y432500D02*
Y450600D01*
X837900Y395600D02*
X853500Y380000D01*
X837900Y395600D02*
Y407500D01*
X836500Y380000D02*
Y383500D01*
X812500Y407500D02*
X836500Y383500D01*
X792500Y490000D02*
X815000D01*
X767500Y465000D02*
X792500Y490000D01*
X815000D02*
X833000Y508000D01*
X802500Y482500D02*
X827500D01*
X785000Y465000D02*
X802500Y482500D01*
X833000Y508000D02*
X838200D01*
X863300Y355900D02*
Y407500D01*
Y355900D02*
X863600Y355600D01*
X889000D02*
Y431800D01*
X795000Y450000D02*
X812500Y432500D01*
X785000Y450000D02*
X795000D01*
X863600Y457600D02*
X888700Y432500D01*
X863600Y406400D02*
Y432200D01*
X889000Y431800D02*
Y432200D01*
X888700Y432500D02*
X889000Y432200D01*
X863300Y432500D02*
X863600Y432200D01*
X562500Y295000D02*
X565000Y297500D01*
X540000Y295000D02*
X562500D01*
X525950Y280950D02*
X540000Y295000D01*
X571650Y278750D02*
X590400Y297500D01*
X548750Y278750D02*
X571650D01*
X538650Y268650D02*
X548750Y278750D01*
X538650Y218650D02*
Y268650D01*
X128500Y132500D02*
Y154000D01*
Y105000D02*
Y132500D01*
Y80000D02*
Y105000D01*
Y55000D02*
Y80000D01*
X90400Y55000D02*
X111500D01*
X90000Y80000D02*
X111500D01*
X90400Y105000D02*
X111500D01*
X90000Y132500D02*
X109000D01*
X915000Y217500D02*
Y250000D01*
X760000Y133500D02*
X780900D01*
X525950Y120000D02*
Y141717D01*
Y110000D02*
Y120000D01*
X621000Y392400D02*
X635000Y406400D01*
X621000Y370000D02*
Y392400D01*
X609600Y406193D02*
Y406400D01*
Y375600D02*
Y406193D01*
X604000Y370000D02*
X609600Y375600D01*
X731000Y361200D02*
X736600Y355600D01*
X731000Y361200D02*
Y377500D01*
X711200Y374700D02*
X714000Y377500D01*
X711200Y355600D02*
Y374700D01*
X525950Y216550D02*
Y280950D01*
X552500Y262500D02*
X553000Y262000D01*
Y247500D02*
Y262000D01*
X509500Y262000D02*
X510000Y262500D01*
X509500Y247500D02*
Y262000D01*
X567500Y232500D02*
Y247000D01*
X495000Y232500D02*
Y247000D01*
X538650Y218650D02*
X552500Y232500D01*
X538650Y194041D02*
Y218650D01*
X510000Y232500D02*
X525950Y216550D01*
Y194041D02*
Y216550D01*
X838200Y101600D02*
X855000Y84800D01*
Y62500D02*
Y84800D01*
X848500Y56000D02*
X855000Y62500D01*
X848500Y50000D02*
Y56000D01*
X831500Y50000D02*
Y61500D01*
X838200Y68200D01*
Y76200D01*
X507500Y107500D02*
X524000D01*
X591500Y208500D02*
Y218385D01*
Y208500D02*
X607500Y192500D01*
X658500D01*
X728500Y122500D01*
X738050Y132050D01*
X740450D01*
X707800Y107879D02*
X711500Y111579D01*
Y122500D01*
X693100D02*
X711500D01*
X239200Y132300D02*
X315400D01*
X243300Y229800D02*
X277500D01*
X315400Y132300D02*
X330900Y116800D01*
X239200Y132300D02*
X254700Y116800D01*
X200000Y132300D02*
X239200D01*
X184500Y116800D02*
X200000Y132300D01*
X319500Y229800D02*
X330900Y218400D01*
X243300Y229800D02*
X254700Y218400D01*
X195000Y229800D02*
X243300D01*
X183600Y218400D02*
X195000Y229800D01*
X178500Y218400D02*
X183600D01*
X538650Y126529D02*
X541800Y123379D01*
X538650Y126529D02*
Y141717D01*
X541800Y112879D02*
Y123379D01*
X609600Y406400D02*
X660400Y457200D01*
X317500Y402500D02*
Y420000D01*
X292500Y445000D02*
X317500Y420000D01*
X745600Y390000D02*
X762000Y406400D01*
X657500Y390000D02*
X745600D01*
X640000Y372500D02*
X657500Y390000D01*
X355600Y25600D02*
X407500Y77500D01*
X355600Y25400D02*
Y25600D01*
X295000Y387500D02*
X317500D01*
X200000Y445000D02*
X292500D01*
X187960Y508000D02*
X188339D01*
X258572Y459300D02*
X271800D01*
X272500Y460000D01*
X277500Y229800D02*
X319500D01*
X188339Y508000D02*
X213739Y482600D01*
X250000D01*
X428120Y230000D02*
X445000D01*
X407500Y209380D02*
X428120Y230000D01*
X407500Y115000D02*
Y209380D01*
X762000Y406400D02*
Y415500D01*
X728500Y449000D02*
X762000Y415500D01*
X767500Y450000D02*
X785000D01*
D24*
X824408Y326050D02*
X847002D01*
X819408Y321050D02*
X824408Y326050D01*
X741050Y321050D02*
X819408D01*
X821479Y316050D02*
X826479Y321050D01*
X768550Y316050D02*
X821479D01*
X828550Y316050D02*
X842860D01*
X805000Y292500D02*
X828550Y316050D01*
X826479Y321050D02*
X844931D01*
X720000Y300000D02*
X741050Y321050D01*
X747500Y295000D02*
X768550Y316050D01*
X853052Y320000D02*
X910000D01*
X847002Y326050D02*
X853052Y320000D01*
X850981Y315000D02*
X912071D01*
X844931Y321050D02*
X850981Y315000D01*
X848910Y310000D02*
X914142D01*
X842860Y316050D02*
X848910Y310000D01*
X920192Y316050D02*
X928550D01*
X914142Y310000D02*
X920192Y316050D01*
X918121Y321050D02*
X930621D01*
X912071Y315000D02*
X918121Y321050D01*
X910000Y320000D02*
X932500Y342500D01*
X928550Y316050D02*
X939800Y304800D01*
X707800Y107879D02*
X722319Y93360D01*
X558800Y93980D02*
X619760D01*
X100000Y362500D02*
X125000Y387500D01*
X70000Y362500D02*
X100000D01*
X245000Y317500D02*
Y318800D01*
Y290000D02*
Y317500D01*
X240000Y285000D02*
X245000Y290000D01*
X181270Y285000D02*
X225000D01*
X142500D02*
X163610D01*
X180000Y286270D02*
X181270Y285000D01*
X147530Y318800D02*
X148700D01*
X780900Y133500D02*
X787400Y127000D01*
X755000Y159400D02*
X780900Y133500D01*
X755000Y167500D02*
X757500D01*
X738000D02*
X755000D01*
Y159400D02*
Y167500D01*
X735000Y220000D02*
Y223000D01*
X730000Y228000D02*
X735000Y223000D01*
Y220000D02*
X757500D01*
X765000Y227500D01*
X512500Y120000D02*
X525950D01*
X494800Y137700D02*
X512500Y120000D01*
X494800Y137700D02*
Y160379D01*
X787400Y219110D02*
Y228600D01*
Y219110D02*
X798650Y207860D01*
Y198540D02*
Y207860D01*
X787400Y187290D02*
X798650Y198540D01*
X787400Y177800D02*
Y187290D01*
Y175814D02*
Y177800D01*
Y175814D02*
X802500Y160714D01*
Y116700D02*
Y160714D01*
X787400Y101600D02*
X802500Y116700D01*
X812498Y165000D02*
X812500Y165001D01*
Y279100D01*
X838200Y304800D01*
X635000Y297300D02*
X642500Y304800D01*
X660400D01*
X296400Y65300D02*
X305400Y56300D01*
X296400Y65300D02*
Y82300D01*
X315100Y66000D02*
X330900D01*
X305400Y56300D02*
X315100Y66000D01*
X178500Y116800D02*
X184500D01*
X322100Y158800D02*
X330900Y167600D01*
X305400Y158800D02*
X322100D01*
X313700Y175800D02*
X330900Y193000D01*
X305400Y175800D02*
X313700D01*
X293900Y170300D02*
X305400Y158800D01*
X293900Y170300D02*
Y182300D01*
X305400Y193800D01*
X323300Y210800D02*
X330900Y218400D01*
X305400Y210800D02*
X323300D01*
X247100D02*
X254700Y218400D01*
X230000Y210800D02*
X247100D01*
X237500Y175800D02*
X254700Y193000D01*
X230000Y175800D02*
X237500D01*
X217500Y181300D02*
X230000Y193800D01*
X217500Y164800D02*
Y181300D01*
Y164800D02*
X223500Y158800D01*
X230000D01*
X245900D02*
X254700Y167600D01*
X230000Y158800D02*
X245900D01*
X170900Y210800D02*
X178500Y218400D01*
X152100Y210800D02*
X170900D01*
X140000Y170900D02*
X152100Y158800D01*
X140000Y170900D02*
Y181700D01*
X152100Y193800D01*
X161300Y175800D02*
X178500Y193000D01*
X152100Y175800D02*
X161300D01*
X169700Y158800D02*
X178500Y167600D01*
X152100Y158800D02*
X169700D01*
X170000Y108300D02*
X178500Y116800D01*
X152100Y108300D02*
X170000D01*
X142500Y81700D02*
X152100Y91300D01*
X142500Y59800D02*
Y81700D01*
Y59800D02*
X146000Y56300D01*
X152100D01*
X160400Y73300D02*
X178500Y91400D01*
X152100Y73300D02*
X160400D01*
X168800Y56300D02*
X178500Y66000D01*
X152100Y56300D02*
X168800D01*
X246200Y108300D02*
X254700Y116800D01*
X230000Y108300D02*
X246200D01*
X236600Y73300D02*
X254700Y91400D01*
X230000Y73300D02*
X236600D01*
X217500Y78800D02*
X230000Y91300D01*
X217500Y62300D02*
Y78800D01*
Y62300D02*
X223500Y56300D01*
X230000D01*
X245000D02*
X254700Y66000D01*
X230000Y56300D02*
X245000D01*
X322400Y108300D02*
X330900Y116800D01*
X305400Y108300D02*
X322400D01*
X296400Y82300D02*
X305400Y91300D01*
X312800Y73300D02*
X330900Y91400D01*
X305400Y73300D02*
X312800D01*
X730500Y295000D02*
X747500D01*
X757500Y272500D02*
X765000Y280000D01*
X737500Y272500D02*
X757500D01*
X730000Y280000D02*
X737500Y272500D01*
X730000Y280000D02*
Y280500D01*
X765000Y295000D02*
X774800Y304800D01*
X750000Y280000D02*
X765000Y295000D01*
X747500Y280000D02*
X750000D01*
X774800Y304800D02*
X787400D01*
X730000Y242000D02*
X730500Y242500D01*
X747500D01*
X765000Y242500D02*
X776500Y254000D01*
X750000Y227500D02*
X765000Y242500D01*
X747500Y227500D02*
X750000D01*
X776500Y254000D02*
X787400D01*
X730000Y189500D02*
X730500Y190000D01*
X747500D01*
X757500Y167500D02*
X765000Y175000D01*
X730000Y175500D02*
X738000Y167500D01*
X765000Y190000D02*
X778200Y203200D01*
X750000Y175000D02*
X765000Y190000D01*
X747500Y175000D02*
X750000D01*
X778200Y203200D02*
X787400D01*
X884700Y177800D02*
X889000D01*
X872500Y190000D02*
X884700Y177800D01*
X832500Y190000D02*
X872500D01*
X822500Y200000D02*
X832500Y190000D01*
X822500Y200000D02*
Y263700D01*
X838200Y279400D01*
X591500Y122500D02*
Y131179D01*
X562300Y160379D02*
X591500Y131179D01*
X522300Y160379D02*
X562300D01*
X513250Y151329D02*
X522300Y160379D01*
X513250Y141717D02*
Y151329D01*
X604200Y114779D02*
Y122500D01*
X525950Y141717D02*
Y151729D01*
X494800Y182879D02*
X505962Y194041D01*
X494800Y175379D02*
Y182879D01*
X505962Y194041D02*
X513250D01*
X685800Y406400D02*
Y449700D01*
X990000Y272500D02*
X992500Y270000D01*
X990000Y252500D02*
X992500Y255000D01*
X629600Y218385D02*
Y239600D01*
X655000Y218385D02*
Y240000D01*
X642300Y257300D02*
X642500Y257500D01*
X629600Y239600D02*
X630000Y240000D01*
X642300Y218385D02*
Y257300D01*
X508000Y482600D02*
Y508000D01*
Y482600D02*
X584200Y406400D01*
X655000Y332300D02*
Y337500D01*
X635000Y312300D02*
X655000Y332300D01*
X475000Y55000D02*
X567500D01*
X585000Y37500D01*
X440000Y90000D02*
X475000Y55000D01*
X622900Y37500D02*
X635000Y25400D01*
X585000Y37500D02*
X622900D01*
X227600Y42300D02*
X340000D01*
X178500Y91400D02*
X227600Y42300D01*
X605000Y219185D02*
Y219713D01*
X585000Y239713D02*
Y250000D01*
Y239713D02*
X605000Y219713D01*
X485429Y60000D02*
X569571D01*
X485429Y60000D02*
X485429Y60000D01*
X587071Y42500D02*
X650000D01*
X445000Y97500D02*
X482500Y60000D01*
X485429D01*
X660400Y25400D02*
Y32100D01*
X569571Y60000D02*
X587071Y42500D01*
X650000D02*
X660400Y32100D01*
X254700Y87600D02*
Y91400D01*
X295000Y47300D02*
X332500D01*
X254700Y87600D02*
X295000Y47300D01*
X487500Y65000D02*
X571642D01*
X589142Y47500D01*
X448400Y104100D02*
X487500Y65000D01*
X663700Y47500D02*
X685800Y25400D01*
X589142Y47500D02*
X663700D01*
X343600Y104100D02*
X448400D01*
X766200Y76200D02*
X787400D01*
X736600Y25400D02*
Y46600D01*
X766200Y76200D01*
X53350Y68750D02*
X64600Y80000D01*
X50450Y90450D02*
X64600Y104600D01*
X50450Y75340D02*
Y90450D01*
X43860Y68750D02*
X50450Y75340D01*
X37440Y68750D02*
X43860D01*
X27500Y58810D02*
X37440Y68750D01*
X52100Y117500D02*
X64600Y130000D01*
X30000Y117500D02*
X52100D01*
X22500Y110000D02*
X30000Y117500D01*
X525000Y332500D02*
X567500D01*
X842500Y40000D02*
X857100Y25400D01*
X782500Y40000D02*
X842500D01*
X857100Y25400D02*
X863600D01*
X770000Y52500D02*
X782500Y40000D01*
X512500Y452500D02*
X520000Y445000D01*
X965200Y498680D02*
X976570Y487309D01*
Y405930D02*
Y487309D01*
X965200Y498680D02*
Y508000D01*
X976570Y405930D02*
X990000Y392500D01*
Y272500D02*
Y392500D01*
X953830Y471230D02*
X965200Y482600D01*
X903730Y471230D02*
X953830D01*
X900000Y467500D02*
X903730Y471230D01*
X932500Y342500D02*
X952900D01*
X965200Y330200D01*
X720000Y222500D02*
Y300000D01*
Y222500D02*
X730000Y212500D01*
Y189500D02*
Y212500D01*
X805000Y277500D02*
Y292500D01*
X792750Y265250D02*
X805000Y277500D01*
X747500Y242500D02*
X770250Y265250D01*
X792750D01*
X944510Y318830D02*
X945680Y320000D01*
X950000D01*
X930621Y321050D02*
X931671Y320000D01*
X933921D01*
X950000D02*
X965200Y304800D01*
X933921Y320000D02*
X935091Y318830D01*
X944510D01*
X990000Y230000D02*
Y252500D01*
X985000Y225000D02*
X990000Y230000D01*
X967500Y242500D02*
X985000Y225000D01*
Y105320D02*
Y225000D01*
X970000Y90320D02*
X985000Y105320D01*
X970000Y90000D02*
Y90320D01*
X951300Y242500D02*
X967500D01*
X925000Y90000D02*
X970000D01*
X939800Y254000D02*
X951300Y242500D01*
X911200Y76200D02*
X925000Y90000D01*
X889000Y76200D02*
X911200D01*
X646684Y267600D02*
X666784Y247500D01*
X672500D01*
X638316Y267600D02*
X646684D01*
X619900Y249184D02*
X638316Y267600D01*
X619900Y235816D02*
Y249184D01*
X621960Y223445D02*
Y233757D01*
X619900Y235816D02*
X621960Y233757D01*
X616900Y218385D02*
X621960Y223445D01*
X965200Y177800D02*
X977500Y165500D01*
X905000Y171120D02*
Y182500D01*
X977500Y145000D02*
Y165500D01*
X972500Y140000D02*
X977500Y145000D01*
X936121Y140000D02*
X972500D01*
X838200Y203200D02*
X870671D01*
X883871Y190000D02*
X897500D01*
X905000Y182500D01*
Y171120D02*
X936121Y140000D01*
X870671Y203200D02*
X883871Y190000D01*
X910000Y182200D02*
Y198110D01*
X893110Y215000D02*
X910000Y198110D01*
Y182200D02*
X939800Y152400D01*
X838200Y228600D02*
X863900D01*
X877500Y215000D02*
X893110D01*
X863900Y228600D02*
X877500Y215000D01*
X927500Y190000D02*
X945000D01*
X952500Y182500D01*
X900250Y217250D02*
Y233260D01*
X952500Y165100D02*
X965200Y152400D01*
X952500Y165100D02*
Y182500D01*
X838200Y254000D02*
X853500D01*
X867650Y239850D02*
X893660D01*
X900250Y233260D01*
Y217250D02*
X927500Y190000D01*
X853500Y254000D02*
X867650Y239850D01*
X889000Y152400D02*
X914400D01*
X939800Y127000D01*
X953200Y115000D02*
X965200Y127000D01*
X920000Y115000D02*
X953200D01*
X889000Y127000D02*
X908000D01*
X920000Y115000D01*
X889000Y168310D02*
Y177800D01*
X877750Y157060D02*
X889000Y168310D01*
X901750Y115750D02*
X915900Y101600D01*
X939800D01*
X877750Y122340D02*
X884340Y115750D01*
X877750Y122340D02*
Y157060D01*
X884340Y115750D02*
X901750D01*
X736500Y482500D02*
X762000Y508000D01*
X657500Y482500D02*
X736500D01*
X635000Y460000D02*
X657500Y482500D01*
X635000Y457200D02*
Y460000D01*
X721100Y492500D02*
X736600Y508000D01*
X644900Y492500D02*
X721100D01*
X609600Y457200D02*
X644900Y492500D01*
X317500Y387500D02*
X342500D01*
X407500Y452500D01*
X512500D01*
X182500Y455000D02*
X195000Y467500D01*
X182500Y414999D02*
Y455000D01*
Y414999D02*
X204999D01*
X227500Y437500D01*
X285000D01*
X295000Y427500D01*
Y402500D02*
Y427500D01*
X347100Y42300D02*
X394800Y90000D01*
X440000D01*
X337820Y42300D02*
X347100D01*
X341940Y47300D02*
X392140Y97500D01*
X445000D01*
X332500Y47300D02*
X341940D01*
X330900Y91400D02*
X343600Y104100D01*
X195000Y467500D02*
X213220D01*
X221420Y459300D01*
X239420D01*
X593560Y104140D02*
X604200Y114779D01*
X551350Y119210D02*
Y141717D01*
Y119210D02*
X566420Y104140D01*
X593560D01*
X619760Y93980D02*
X622300Y91440D01*
X807720Y-5080D02*
X838200Y25400D01*
X787320Y-80D02*
X812800Y25400D01*
X766920Y4920D02*
X787400Y25400D01*
X746520Y9920D02*
X762000Y25400D01*
X64600Y45400D02*
Y54600D01*
Y45400D02*
X100080Y9920D01*
X746520D01*
X53350Y46650D02*
Y68750D01*
Y46650D02*
X95080Y4920D01*
X766920D01*
X22500Y42500D02*
Y110000D01*
Y42500D02*
X70080Y-5080D01*
X807720D01*
X27500Y44571D02*
Y58810D01*
Y44571D02*
X72151Y-80D01*
X787320D01*
X705000Y438000D02*
X736600Y406400D01*
X705000Y438000D02*
Y449700D01*
X685800D02*
X689700D01*
X697250Y457250D01*
X717250D01*
X725000Y465000D01*
X889000Y431800D02*
X889000Y431800D01*
D25*
X800000Y395000D02*
X812500Y407500D01*
X780000Y375000D02*
X800000Y395000D01*
Y393800D02*
Y395000D01*
Y393800D02*
X838200Y355600D01*
X780000Y345000D02*
Y375000D01*
X770000Y335000D02*
X780000Y345000D01*
X735000Y335000D02*
X770000D01*
X812500Y407500D02*
Y432500D01*
X570600Y387500D02*
X590907D01*
X556850Y373750D02*
X570600Y387500D01*
X575000Y355600D02*
X660400D01*
X490000Y400000D02*
Y435000D01*
Y365000D02*
Y400000D01*
X556850Y373750D02*
X575000Y355600D01*
X516250Y373750D02*
X558100D01*
X490000Y400000D02*
X516250Y373750D01*
X710000Y310000D02*
X735000Y335000D01*
X148700Y318800D02*
X245000D01*
X660400Y355600D02*
X710000Y306000D01*
X635000Y406400D02*
X685800D01*
X710000Y272500D02*
Y306000D01*
Y272500D02*
Y310000D01*
Y162500D02*
Y272500D01*
X740450Y132050D02*
X770900Y101600D01*
X710000Y162500D02*
X740450Y132050D01*
X450000Y365000D02*
X465000D01*
X367500Y282500D02*
X450000Y365000D01*
X367500Y275000D02*
Y282500D01*
X736600Y336600D02*
Y355600D01*
X770900Y101600D02*
X787400D01*
X838200D01*
X440000Y416000D02*
X471000D01*
X490000Y435000D01*
X342799Y318800D02*
X440000Y416000D01*
X245000Y318800D02*
X342799D01*
X235400Y360000D02*
X245000Y369600D01*
X229200Y360000D02*
X245000Y344200D01*
X197500Y360000D02*
X229200D01*
X235400D01*
X590907Y387500D02*
X609600Y406193D01*
X277500Y229800D02*
Y285000D01*
X245000Y317500D02*
X277500Y285000D01*
Y134800D02*
Y229800D01*
X331800Y166700D02*
X367500Y202400D01*
Y250000D01*
X101600Y272869D02*
X147530Y318800D01*
X70000Y303680D02*
Y362500D01*
X66040Y299720D02*
X70000Y303680D01*
X66040Y366460D02*
X70000Y362500D01*
X101600Y64900D02*
X111500Y55000D01*
X101600Y64900D02*
Y272869D01*
X419100Y128400D02*
X432500Y115000D01*
X419100Y128400D02*
Y200660D01*
X392499Y132500D02*
Y267499D01*
X475000Y350000D01*
X490000Y365000D01*
X475000Y105000D02*
X492500Y87500D01*
X530000D01*
X541000Y98500D01*
Y107500D01*
X457200Y182880D02*
X475000D01*
Y105000D02*
Y182880D01*
Y350000D01*
D26*
X667700Y91120D02*
Y122500D01*
X619760Y79360D02*
X657860D01*
X778108Y508000D02*
X787400D01*
X766718Y496610D02*
X778108Y508000D01*
X738580Y477480D02*
X757710Y496610D01*
X766718D01*
X680400Y83740D02*
Y122500D01*
Y83740D02*
X685400Y78740D01*
X721360D01*
X657860Y81280D02*
X667700Y91120D01*
X685800Y464700D02*
X707200D01*
X719980Y477480D01*
X738580D01*
D27*
X66040Y299720D02*
Y366460D01*
X32750Y399750D02*
Y425000D01*
Y399750D02*
X66040Y366460D01*
X29500Y487500D02*
X92000Y425000D01*
X102250D01*
X122500Y487500D02*
X165000Y445000D01*
X95500Y487500D02*
X122500D01*
X163650Y443650D02*
X165000Y445000D01*
X163650Y360000D02*
X165000D01*
X163650Y395000D02*
Y443650D01*
Y395000D02*
X245000D01*
X163650Y360000D02*
Y395000D01*
D28*
X304800Y25400D02*
D03*
X863600Y508000D02*
D03*
X838200D02*
D03*
X238760D02*
D03*
X264160D02*
D03*
X289560D02*
D03*
X314960D02*
D03*
X340360D02*
D03*
X365760D02*
D03*
X391160D02*
D03*
X457200D02*
D03*
X482600D02*
D03*
X508000D02*
D03*
X533400D02*
D03*
X558800D02*
D03*
X584200D02*
D03*
X558800Y25400D02*
D03*
X533400D02*
D03*
X635000D02*
D03*
X609600D02*
D03*
X584200D02*
D03*
X431800D02*
D03*
X406400D02*
D03*
X381000D02*
D03*
X355600D02*
D03*
X330200D02*
D03*
X660400D02*
D03*
X685800D02*
D03*
X762000D02*
D03*
X787400D02*
D03*
X812800D02*
D03*
X838200D02*
D03*
X863600D02*
D03*
X889000D02*
D03*
X914400D02*
D03*
X939800Y508000D02*
D03*
X965200D02*
D03*
X939800Y482600D02*
D03*
X965200D02*
D03*
X939800Y457200D02*
D03*
X965200D02*
D03*
X939800Y431800D02*
D03*
X965200D02*
D03*
X939800Y406400D02*
D03*
X965200D02*
D03*
X939800Y381000D02*
D03*
X965200D02*
D03*
X939800Y355600D02*
D03*
X965200D02*
D03*
X939800Y330200D02*
D03*
X965200D02*
D03*
X939800Y304800D02*
D03*
X965200D02*
D03*
X939800Y279400D02*
D03*
X965200D02*
D03*
X939800Y254000D02*
D03*
X965200D02*
D03*
X939800Y228600D02*
D03*
X965200D02*
D03*
X939800Y203200D02*
D03*
X965200D02*
D03*
X939800Y177800D02*
D03*
X965200D02*
D03*
X939800Y152400D02*
D03*
X965200D02*
D03*
X939800Y127000D02*
D03*
X965200D02*
D03*
X939800Y101600D02*
D03*
X965200D02*
D03*
X939800Y76200D02*
D03*
X965200D02*
D03*
X812800Y508000D02*
D03*
X762000D02*
D03*
X711200D02*
D03*
X609600D02*
D03*
X787400D02*
D03*
X736600D02*
D03*
X685800D02*
D03*
X635000D02*
D03*
D29*
X416560D02*
D03*
X508000Y25400D02*
D03*
X457200D02*
D03*
X736600D02*
D03*
D30*
X152400Y508000D02*
D03*
X965200Y25400D02*
D03*
X901700Y508000D02*
D03*
D31*
X565000Y297500D02*
D03*
X90000Y130000D02*
D03*
Y80000D02*
D03*
X660400Y457200D02*
D03*
X812500Y407500D02*
D03*
X889000Y355600D02*
D03*
X762000D02*
D03*
Y406400D02*
D03*
X584200D02*
D03*
X213360Y508000D02*
D03*
X812500Y432500D02*
D03*
D32*
X590400Y297500D02*
D03*
X64600Y130000D02*
D03*
X39200D02*
D03*
X90000Y104600D02*
D03*
X64600D02*
D03*
X39200D02*
D03*
X64600Y80000D02*
D03*
X39200D02*
D03*
X90000Y54600D02*
D03*
X64600D02*
D03*
X39200D02*
D03*
X660400Y279400D02*
D03*
X889000Y254000D02*
D03*
Y228600D02*
D03*
Y203200D02*
D03*
Y177800D02*
D03*
Y152400D02*
D03*
Y127000D02*
D03*
Y101600D02*
D03*
X838200Y127000D02*
D03*
Y304800D02*
D03*
Y279400D02*
D03*
Y254000D02*
D03*
Y228600D02*
D03*
Y203200D02*
D03*
Y177800D02*
D03*
Y152400D02*
D03*
Y101600D02*
D03*
X787400D02*
D03*
Y127000D02*
D03*
X787400Y203200D02*
D03*
Y228600D02*
D03*
Y254000D02*
D03*
Y279400D02*
D03*
Y304800D02*
D03*
X584200Y457200D02*
D03*
X609600D02*
D03*
X635000D02*
D03*
X888700Y407500D02*
D03*
X863300D02*
D03*
X837900D02*
D03*
X330900Y91400D02*
D03*
Y66000D02*
D03*
X812800Y355600D02*
D03*
X838200D02*
D03*
X863600D02*
D03*
X254700Y91400D02*
D03*
Y66000D02*
D03*
X178500Y91400D02*
D03*
Y66000D02*
D03*
X330900Y193000D02*
D03*
Y167600D02*
D03*
X254700Y193000D02*
D03*
Y167600D02*
D03*
X178500Y193000D02*
D03*
Y167600D02*
D03*
X736600Y355600D02*
D03*
X711200D02*
D03*
X685800Y406400D02*
D03*
X711200D02*
D03*
X736600D02*
D03*
X609600D02*
D03*
X635000D02*
D03*
X245000Y318800D02*
D03*
Y344200D02*
D03*
Y369600D02*
D03*
X187960Y508000D02*
D03*
X457200Y182880D02*
D03*
X837900Y432500D02*
D03*
X863300D02*
D03*
X888700D02*
D03*
D33*
X660400Y304800D02*
D03*
X889000Y76200D02*
D03*
X838200Y76200D02*
D03*
X787400D02*
D03*
X787400Y177800D02*
D03*
X330900Y116800D02*
D03*
X254700D02*
D03*
X178500D02*
D03*
X330900Y218400D02*
D03*
X254700D02*
D03*
X178500D02*
D03*
X245000Y395000D02*
D03*
X457200Y157480D02*
D03*
D34*
X465000Y435000D02*
D03*
X490000D02*
D03*
X465000Y365000D02*
D03*
X490000D02*
D03*
D35*
X200000Y360000D02*
D03*
X165000D02*
D03*
Y445000D02*
D03*
X200000D02*
D03*
D36*
X66040Y248920D02*
D03*
Y299720D02*
D03*
D37*
X657860Y81280D02*
D03*
X682860D02*
D03*
X827500Y482500D02*
D03*
X850000Y487500D02*
D03*
X142500Y285000D02*
D03*
X432500Y115000D02*
D03*
X552500Y262500D02*
D03*
X510000D02*
D03*
X707800Y107879D02*
D03*
X392499Y132500D02*
D03*
X640000Y372500D02*
D03*
X445000Y230000D02*
D03*
X407500Y115000D02*
D03*
Y77500D02*
D03*
X419100Y200660D02*
D03*
D38*
X558800Y93980D02*
D03*
X182500Y414999D02*
D03*
X125000Y387500D02*
D03*
X128500Y154000D02*
D03*
X812498Y165000D02*
D03*
X507500Y107500D02*
D03*
X655000Y240000D02*
D03*
X642500Y257500D02*
D03*
X630000Y240000D02*
D03*
X655000Y337500D02*
D03*
X585000Y250000D02*
D03*
X567500Y332500D02*
D03*
X770000Y52500D02*
D03*
X520000Y445000D02*
D03*
X525000Y332500D02*
D03*
X900000Y467500D02*
D03*
X672500Y247500D02*
D03*
X272500Y460000D02*
D03*
D39*
X915000Y217500D02*
D03*
Y250000D02*
D03*
X735000Y220000D02*
D03*
X737500Y270000D02*
D03*
M02*
