G04 Layer_Color=8388736*
%FSLAX44Y44*%
%MOMM*%
G71*
G01*
G75*
G04:AMPARAMS|DCode=48|XSize=1.2032mm|YSize=1.1032mm|CornerRadius=0.2141mm|HoleSize=0mm|Usage=FLASHONLY|Rotation=90.000|XOffset=0mm|YOffset=0mm|HoleType=Round|Shape=RoundedRectangle|*
%AMROUNDEDRECTD48*
21,1,1.2032,0.6750,0,0,90.0*
21,1,0.7750,1.1032,0,0,90.0*
1,1,0.4282,0.3375,0.3875*
1,1,0.4282,0.3375,-0.3875*
1,1,0.4282,-0.3375,-0.3875*
1,1,0.4282,-0.3375,0.3875*
%
%ADD48ROUNDEDRECTD48*%
%ADD49R,0.9032X1.1032*%
%ADD50R,1.1032X0.9032*%
G04:AMPARAMS|DCode=51|XSize=1.2192mm|YSize=1.2192mm|CornerRadius=0.254mm|HoleSize=0mm|Usage=FLASHONLY|Rotation=90.000|XOffset=0mm|YOffset=0mm|HoleType=Round|Shape=RoundedRectangle|*
%AMROUNDEDRECTD51*
21,1,1.2192,0.7112,0,0,90.0*
21,1,0.7112,1.2192,0,0,90.0*
1,1,0.5080,0.3556,0.3556*
1,1,0.5080,0.3556,-0.3556*
1,1,0.5080,-0.3556,-0.3556*
1,1,0.5080,-0.3556,0.3556*
%
%ADD51ROUNDEDRECTD51*%
%ADD52R,1.0032X1.1032*%
%ADD53R,1.4224X1.0160*%
G04:AMPARAMS|DCode=54|XSize=1.2032mm|YSize=1.1032mm|CornerRadius=0.2141mm|HoleSize=0mm|Usage=FLASHONLY|Rotation=0.000|XOffset=0mm|YOffset=0mm|HoleType=Round|Shape=RoundedRectangle|*
%AMROUNDEDRECTD54*
21,1,1.2032,0.6750,0,0,0.0*
21,1,0.7750,1.1032,0,0,0.0*
1,1,0.4282,0.3875,-0.3375*
1,1,0.4282,-0.3875,-0.3375*
1,1,0.4282,-0.3875,0.3375*
1,1,0.4282,0.3875,0.3375*
%
%ADD54ROUNDEDRECTD54*%
%ADD55R,1.1032X1.0032*%
%ADD56R,2.2032X5.5032*%
%ADD57R,0.8128X2.4130*%
%ADD58R,0.9652X1.3462*%
%ADD59R,2.6032X3.5032*%
%ADD60R,1.0160X1.1176*%
%ADD61C,1.7272*%
%ADD62R,1.7272X1.7272*%
%ADD63C,1.8032*%
%ADD64R,1.7032X1.7032*%
%ADD65C,1.7032*%
%ADD66R,1.7032X1.7032*%
%ADD67C,1.4032*%
%ADD68C,2.2032*%
%ADD69O,3.2032X2.7032*%
%ADD70C,1.2032*%
%ADD71C,1.4732*%
%ADD72C,1.0032*%
D48*
X878500Y332500D02*
D03*
X861500D02*
D03*
X836500Y380000D02*
D03*
X853500D02*
D03*
X833500Y457500D02*
D03*
X816500D02*
D03*
X128500Y105000D02*
D03*
X111500D02*
D03*
X128500Y132500D02*
D03*
X111500D02*
D03*
X128500Y55000D02*
D03*
X111500D02*
D03*
X128500Y80000D02*
D03*
X111500D02*
D03*
X621000Y370000D02*
D03*
X604000D02*
D03*
X714000Y377500D02*
D03*
X731000D02*
D03*
X848500Y50000D02*
D03*
X831500D02*
D03*
X711500Y122500D02*
D03*
X728500D02*
D03*
X541000Y107500D02*
D03*
X524000D02*
D03*
D49*
X225000Y285000D02*
D03*
X240000D02*
D03*
X567500Y232500D02*
D03*
X552500D02*
D03*
X495000D02*
D03*
X510000D02*
D03*
D50*
X295000Y402500D02*
D03*
Y387500D02*
D03*
X317500Y402500D02*
D03*
Y387500D02*
D03*
X635000Y297300D02*
D03*
Y312300D02*
D03*
X990000Y270000D02*
D03*
Y255000D02*
D03*
X765000Y295000D02*
D03*
Y280000D02*
D03*
X747500Y280000D02*
D03*
Y295000D02*
D03*
X765000Y242500D02*
D03*
Y227500D02*
D03*
X747500Y242500D02*
D03*
Y227500D02*
D03*
X765000Y175000D02*
D03*
Y190000D02*
D03*
X747500Y190000D02*
D03*
Y175000D02*
D03*
X785000Y465000D02*
D03*
Y450000D02*
D03*
X767500Y465000D02*
D03*
Y450000D02*
D03*
X494800Y160379D02*
D03*
Y175379D02*
D03*
X685000Y450000D02*
D03*
Y465000D02*
D03*
X705000D02*
D03*
Y450000D02*
D03*
D51*
X181270Y285000D02*
D03*
X163610D02*
D03*
D52*
X553000Y247500D02*
D03*
X567000D02*
D03*
X509500D02*
D03*
X495500D02*
D03*
D53*
X367500Y253356D02*
D03*
Y271500D02*
D03*
D54*
X152100Y193800D02*
D03*
Y210800D02*
D03*
X725000Y466000D02*
D03*
Y449000D02*
D03*
X760000Y133500D02*
D03*
Y116500D02*
D03*
X230000Y193800D02*
D03*
Y210800D02*
D03*
X305400Y193800D02*
D03*
Y210800D02*
D03*
X152100Y91300D02*
D03*
Y108300D02*
D03*
X230000Y91300D02*
D03*
Y108300D02*
D03*
X305400Y91300D02*
D03*
Y108300D02*
D03*
X305400Y56300D02*
D03*
Y73300D02*
D03*
X230000Y56300D02*
D03*
Y73300D02*
D03*
X152100Y56300D02*
D03*
Y73300D02*
D03*
X305400Y158800D02*
D03*
Y175800D02*
D03*
X230000Y158800D02*
D03*
Y175800D02*
D03*
X152100Y158800D02*
D03*
Y175800D02*
D03*
D55*
X730000Y294500D02*
D03*
Y280500D02*
D03*
Y242000D02*
D03*
Y228000D02*
D03*
X730000Y189500D02*
D03*
Y175500D02*
D03*
X619760Y79360D02*
D03*
Y93360D02*
D03*
X721360Y79360D02*
D03*
Y93360D02*
D03*
D56*
X29500Y487500D02*
D03*
X95500D02*
D03*
D57*
X513250Y194041D02*
D03*
X525950D02*
D03*
X538650D02*
D03*
X551350D02*
D03*
Y141717D02*
D03*
X538650D02*
D03*
X525950D02*
D03*
X513250D02*
D03*
D58*
X591500Y218385D02*
D03*
X604200D02*
D03*
X616900D02*
D03*
X629600D02*
D03*
X642300D02*
D03*
X655000D02*
D03*
X667700D02*
D03*
X680400D02*
D03*
X693100D02*
D03*
Y122500D02*
D03*
X680400D02*
D03*
X667700D02*
D03*
X655000D02*
D03*
X642300D02*
D03*
X629600D02*
D03*
X616900D02*
D03*
X604200D02*
D03*
X591500D02*
D03*
D59*
X32750Y425000D02*
D03*
X102250D02*
D03*
D60*
X248920Y481076D02*
D03*
X258572Y459900D02*
D03*
X239420D02*
D03*
D61*
X304800Y25400D02*
D03*
X863600Y508000D02*
D03*
X838200D02*
D03*
X238760D02*
D03*
X264160D02*
D03*
X289560D02*
D03*
X314960D02*
D03*
X340360D02*
D03*
X365760D02*
D03*
X391160D02*
D03*
X457200D02*
D03*
X482600D02*
D03*
X508000D02*
D03*
X533400D02*
D03*
X558800D02*
D03*
X584200D02*
D03*
X558800Y25400D02*
D03*
X533400D02*
D03*
X635000D02*
D03*
X609600D02*
D03*
X584200D02*
D03*
X431800D02*
D03*
X406400D02*
D03*
X381000D02*
D03*
X355600D02*
D03*
X330200D02*
D03*
X660400D02*
D03*
X685800D02*
D03*
X762000D02*
D03*
X787400D02*
D03*
X812800D02*
D03*
X838200D02*
D03*
X863600D02*
D03*
X889000D02*
D03*
X914400D02*
D03*
X939800Y508000D02*
D03*
X965200D02*
D03*
X939800Y482600D02*
D03*
X965200D02*
D03*
X939800Y457200D02*
D03*
X965200D02*
D03*
X939800Y431800D02*
D03*
X965200D02*
D03*
X939800Y406400D02*
D03*
X965200D02*
D03*
X939800Y381000D02*
D03*
X965200D02*
D03*
X939800Y355600D02*
D03*
X965200D02*
D03*
X939800Y330200D02*
D03*
X965200D02*
D03*
X939800Y304800D02*
D03*
X965200D02*
D03*
X939800Y279400D02*
D03*
X965200D02*
D03*
X939800Y254000D02*
D03*
X965200D02*
D03*
X939800Y228600D02*
D03*
X965200D02*
D03*
X939800Y203200D02*
D03*
X965200D02*
D03*
X939800Y177800D02*
D03*
X965200D02*
D03*
X939800Y152400D02*
D03*
X965200D02*
D03*
X939800Y127000D02*
D03*
X965200D02*
D03*
X939800Y101600D02*
D03*
X965200D02*
D03*
X939800Y76200D02*
D03*
X965200D02*
D03*
X812800Y508000D02*
D03*
X762000D02*
D03*
X711200D02*
D03*
X609600D02*
D03*
X787400D02*
D03*
X736600D02*
D03*
X685800D02*
D03*
X635000D02*
D03*
D62*
X416560D02*
D03*
X508000Y25400D02*
D03*
X457200D02*
D03*
X736600D02*
D03*
D63*
X152400Y508000D02*
D03*
X965200Y25400D02*
D03*
X901700Y508000D02*
D03*
D64*
X565000Y297500D02*
D03*
X90000Y130000D02*
D03*
Y80000D02*
D03*
X660400Y457200D02*
D03*
X812500Y407500D02*
D03*
X889000Y355600D02*
D03*
X762000D02*
D03*
Y406400D02*
D03*
X584200D02*
D03*
X213360Y508000D02*
D03*
X812500Y432500D02*
D03*
D65*
X590400Y297500D02*
D03*
X64600Y130000D02*
D03*
X39200D02*
D03*
X90000Y104600D02*
D03*
X64600D02*
D03*
X39200D02*
D03*
X64600Y80000D02*
D03*
X39200D02*
D03*
X90000Y54600D02*
D03*
X64600D02*
D03*
X39200D02*
D03*
X660400Y279400D02*
D03*
X889000Y254000D02*
D03*
Y228600D02*
D03*
Y203200D02*
D03*
Y177800D02*
D03*
Y152400D02*
D03*
Y127000D02*
D03*
Y101600D02*
D03*
X838200Y127000D02*
D03*
Y304800D02*
D03*
Y279400D02*
D03*
Y254000D02*
D03*
Y228600D02*
D03*
Y203200D02*
D03*
Y177800D02*
D03*
Y152400D02*
D03*
Y101600D02*
D03*
X787400D02*
D03*
Y127000D02*
D03*
X787400Y203200D02*
D03*
Y228600D02*
D03*
Y254000D02*
D03*
Y279400D02*
D03*
Y304800D02*
D03*
X584200Y457200D02*
D03*
X609600D02*
D03*
X635000D02*
D03*
X888700Y407500D02*
D03*
X863300D02*
D03*
X837900D02*
D03*
X330900Y91400D02*
D03*
Y66000D02*
D03*
X812800Y355600D02*
D03*
X838200D02*
D03*
X863600D02*
D03*
X254700Y91400D02*
D03*
Y66000D02*
D03*
X178500Y91400D02*
D03*
Y66000D02*
D03*
X330900Y193000D02*
D03*
Y167600D02*
D03*
X254700Y193000D02*
D03*
Y167600D02*
D03*
X178500Y193000D02*
D03*
Y167600D02*
D03*
X736600Y355600D02*
D03*
X711200D02*
D03*
X685800Y406400D02*
D03*
X711200D02*
D03*
X736600D02*
D03*
X609600D02*
D03*
X635000D02*
D03*
X245000Y318800D02*
D03*
Y344200D02*
D03*
Y369600D02*
D03*
X187960Y508000D02*
D03*
X457200Y182880D02*
D03*
X837900Y432500D02*
D03*
X863300D02*
D03*
X888700D02*
D03*
D66*
X660400Y304800D02*
D03*
X889000Y76200D02*
D03*
X838200Y76200D02*
D03*
X787400D02*
D03*
X787400Y177800D02*
D03*
X330900Y116800D02*
D03*
X254700D02*
D03*
X178500D02*
D03*
X330900Y218400D02*
D03*
X254700D02*
D03*
X178500D02*
D03*
X245000Y395000D02*
D03*
X457200Y157480D02*
D03*
D67*
X465000Y435000D02*
D03*
X490000D02*
D03*
X465000Y365000D02*
D03*
X490000D02*
D03*
D68*
X200000Y360000D02*
D03*
X165000D02*
D03*
Y445000D02*
D03*
X200000D02*
D03*
D69*
X66040Y248920D02*
D03*
Y299720D02*
D03*
D70*
X657860Y81280D02*
D03*
X682860D02*
D03*
X827500Y482500D02*
D03*
X850000Y487500D02*
D03*
X142500Y285000D02*
D03*
X432500Y115000D02*
D03*
X552500Y262500D02*
D03*
X510000D02*
D03*
X707800Y107879D02*
D03*
X392499Y132500D02*
D03*
X640000Y372500D02*
D03*
X445000Y230000D02*
D03*
X407500Y115000D02*
D03*
Y77500D02*
D03*
X419100Y200660D02*
D03*
D71*
X558800Y93980D02*
D03*
X182500Y414999D02*
D03*
X125000Y387500D02*
D03*
X128500Y154000D02*
D03*
X812498Y165000D02*
D03*
X507500Y107500D02*
D03*
X655000Y240000D02*
D03*
X642500Y257500D02*
D03*
X630000Y240000D02*
D03*
X655000Y337500D02*
D03*
X585000Y250000D02*
D03*
X567500Y332500D02*
D03*
X770000Y52500D02*
D03*
X520000Y445000D02*
D03*
X525000Y332500D02*
D03*
X900000Y467500D02*
D03*
X672500Y247500D02*
D03*
X272500Y460000D02*
D03*
D72*
X915000Y217500D02*
D03*
Y250000D02*
D03*
X735000Y220000D02*
D03*
X737500Y270000D02*
D03*
M02*
